<?xml version="1.0" encoding="UTF-8" standalone="no"?>
<!DOCTYPE svg PUBLIC "-//W3C//DTD SVG 1.1//EN" "http://www.w3.org/Graphics/SVG/1.1/DTD/svg11.dtd">
<svg width="100%" height="100%" viewBox="0 0 630 138" version="1.1" xmlns="http://www.w3.org/2000/svg" xmlns:xlink="http://www.w3.org/1999/xlink" xml:space="preserve" xmlns:serif="http://www.serif.com/" style="fill-rule:evenodd;clip-rule:evenodd;stroke-linejoin:round;stroke-miterlimit:2;">
    <g transform="matrix(4.16667,0,0,4.16667,0,0)">
        <path d="M8.658,10C8.07,9.546 6.994,9.205 5.428,8.974C5.22,8.949 4.936,8.914 4.575,8.872C3.327,8.705 2.703,8.379 2.703,7.893C2.703,7.582 2.853,7.337 3.151,7.159C3.448,6.984 3.869,6.895 4.409,6.895C5.101,6.895 5.793,7.143 6.483,7.639C7.173,8.133 7.66,8.382 7.945,8.382C8.221,8.382 8.437,8.3 8.589,8.138C8.742,7.975 8.818,7.745 8.818,7.446L8.818,6.168C8.818,5.814 8.744,5.548 8.595,5.372C8.445,5.196 8.229,5.106 7.945,5.106C7.743,5.106 7.561,5.148 7.398,5.231C7.235,5.314 7.081,5.443 6.936,5.616C6.437,5.464 5.95,5.351 5.475,5.279C5,5.205 4.537,5.169 4.086,5.169C2.776,5.169 1.768,5.437 1.06,5.97C0.353,6.504 0,7.259 0,8.237C0,9.062 0.294,9.719 0.883,10.208C1.472,10.695 2.371,11.024 3.577,11.19C3.778,11.225 4.055,11.263 4.409,11.304C6.01,11.52 6.811,11.908 6.811,12.469C6.811,12.782 6.662,13.034 6.363,13.229C6.065,13.423 5.667,13.52 5.168,13.52C4.592,13.52 4.08,13.443 3.629,13.291C3.177,13.139 2.783,12.91 2.444,12.604C2.339,12.5 2.21,12.342 2.059,12.126C1.802,11.731 1.469,11.534 1.06,11.534C0.686,11.534 0.422,11.628 0.27,11.818C0.117,12.01 0.041,12.334 0.041,12.792L0.041,14.174C0.041,14.612 0.102,14.91 0.222,15.07C0.345,15.229 0.554,15.308 0.852,15.308C1.053,15.308 1.249,15.271 1.44,15.198C1.63,15.126 1.815,15.021 1.996,14.881C2.474,15.021 2.97,15.126 3.483,15.198C3.996,15.271 4.53,15.308 5.084,15.308C6.505,15.308 7.603,15.021 8.376,14.45C9.149,13.879 9.536,13.069 9.536,12.022C9.536,11.127 9.243,10.454 8.658,10Z" style="fill:url(#_Linear1);"/>
        <path d="M19.248,12.344C18.839,12.635 18.423,12.851 18,12.99C17.577,13.128 17.127,13.198 16.648,13.198C16.129,13.198 15.73,13.091 15.453,12.88C15.175,12.668 15.037,12.362 15.037,11.959C15.037,11.51 15.254,11.156 15.687,10.899C16.12,10.643 16.718,10.514 17.481,10.514C17.73,10.514 18,10.534 18.292,10.57C18.583,10.609 18.901,10.667 19.248,10.744L19.248,12.344ZM21.932,12.75L21.765,12.75L21.765,8.892C21.765,7.534 21.446,6.57 20.808,6.001C20.17,5.432 19.113,5.148 17.636,5.148C16.222,5.148 15.104,5.314 14.283,5.643C13.461,5.971 13.05,6.418 13.05,6.978C13.05,7.292 13.151,7.542 13.352,7.733C13.553,7.924 13.816,8.018 14.143,8.018C14.475,8.018 14.997,7.849 15.707,7.509C16.418,7.169 17.002,7 17.46,7C18.049,7 18.495,7.162 18.796,7.488C19.097,7.814 19.248,8.29 19.248,8.914L19.248,9.11C18.784,9.034 18.364,8.979 17.99,8.944C17.616,8.909 17.262,8.892 16.929,8.892C15.439,8.892 14.281,9.181 13.456,9.755C12.63,10.331 12.218,11.138 12.218,12.178C12.218,13.142 12.537,13.9 13.175,14.455C13.813,15.01 14.69,15.287 15.807,15.287C16.465,15.287 17.117,15.187 17.761,14.986C18.406,14.785 19.016,14.494 19.592,14.113C19.702,14.458 19.843,14.698 20.012,14.83C20.183,14.962 20.44,15.028 20.787,15.028L21.765,15.028C22.236,15.028 22.574,14.938 22.778,14.763C22.983,14.586 23.086,14.296 23.086,13.894C23.086,13.526 22.986,13.244 22.789,13.046C22.591,12.85 22.306,12.75 21.932,12.75Z" style="fill:url(#_Linear2);"/>
        <path d="M34.805,12.729L34.67,12.729L34.67,9.256C34.67,7.877 34.398,6.851 33.854,6.177C33.31,5.505 32.482,5.169 31.373,5.169C30.722,5.169 30.148,5.296 29.652,5.548C29.157,5.802 28.749,6.177 28.431,6.677L28.431,5.866C28.431,5.72 28.38,5.609 28.28,5.533C28.18,5.456 28.031,5.419 27.838,5.419L26.07,5.419C25.592,5.419 25.252,5.509 25.05,5.689C24.85,5.871 24.75,6.163 24.75,6.573C24.75,6.94 24.846,7.219 25.041,7.409C25.234,7.601 25.519,7.696 25.894,7.696L26.07,7.696L26.07,12.729L25.945,12.729C25.55,12.729 25.255,12.824 25.061,13.016C24.867,13.206 24.77,13.492 24.77,13.874C24.77,14.283 24.87,14.577 25.072,14.756C25.272,14.938 25.605,15.028 26.07,15.028L28.649,15.028C29.113,15.028 29.445,14.938 29.647,14.756C29.848,14.577 29.949,14.283 29.949,13.874C29.949,13.492 29.852,13.206 29.658,13.016C29.463,12.824 29.169,12.729 28.774,12.729L28.649,12.729L28.649,9.724C28.649,9.031 28.832,8.474 29.194,8.055C29.559,7.635 30.028,7.425 30.604,7.425C31.145,7.425 31.531,7.601 31.764,7.95C31.996,8.3 32.112,8.892 32.112,9.724L32.112,12.729L31.987,12.729C31.592,12.729 31.295,12.824 31.098,13.016C30.9,13.206 30.802,13.492 30.802,13.874C30.802,14.283 30.904,14.577 31.108,14.756C31.313,14.938 31.647,15.028 32.112,15.028L34.67,15.028C35.141,15.028 35.476,14.938 35.674,14.756C35.871,14.577 35.97,14.283 35.97,13.874C35.97,13.492 35.873,13.206 35.679,13.016C35.485,12.824 35.193,12.729 34.805,12.729Z" style="fill:url(#_Linear3);"/>
        <path d="M46.998,10C46.413,9.546 45.336,9.205 43.77,8.974C43.561,8.949 43.276,8.914 42.917,8.872C41.668,8.705 41.045,8.379 41.045,7.893C41.045,7.582 41.193,7.337 41.491,7.159C41.79,6.984 42.209,6.895 42.751,6.895C43.443,6.895 44.135,7.143 44.824,7.639C45.515,8.133 46.001,8.382 46.286,8.382C46.563,8.382 46.778,8.3 46.931,8.138C47.083,7.975 47.159,7.745 47.159,7.446L47.159,6.168C47.159,5.814 47.085,5.548 46.937,5.372C46.787,5.196 46.57,5.106 46.286,5.106C46.085,5.106 45.903,5.148 45.74,5.231C45.577,5.314 45.423,5.443 45.277,5.616C44.778,5.464 44.291,5.351 43.816,5.279C43.342,5.205 42.878,5.169 42.428,5.169C41.118,5.169 40.109,5.437 39.401,5.97C38.694,6.504 38.341,7.259 38.341,8.237C38.341,9.062 38.635,9.719 39.225,10.208C39.814,10.695 40.712,11.024 41.918,11.19C42.119,11.225 42.397,11.263 42.751,11.304C44.352,11.52 45.153,11.908 45.153,12.469C45.153,12.782 45.003,13.034 44.706,13.229C44.407,13.423 44.008,13.52 43.51,13.52C42.934,13.52 42.421,13.443 41.971,13.291C41.52,13.139 41.124,12.91 40.785,12.604C40.681,12.5 40.552,12.342 40.4,12.126C40.143,11.731 39.811,11.534 39.401,11.534C39.027,11.534 38.764,11.628 38.611,11.818C38.459,12.01 38.382,12.334 38.382,12.792L38.382,14.174C38.382,14.612 38.444,14.91 38.564,15.07C38.686,15.229 38.896,15.308 39.194,15.308C39.395,15.308 39.59,15.271 39.782,15.198C39.972,15.126 40.157,15.021 40.337,14.881C40.816,15.021 41.312,15.126 41.825,15.198C42.338,15.271 42.871,15.308 43.426,15.308C44.847,15.308 45.944,15.021 46.717,14.45C47.49,13.879 47.877,13.069 47.877,12.022C47.877,11.127 47.585,10.454 46.998,10Z" style="fill:url(#_Linear4);"/>
        <path d="M60.148,9.048L51.527,9.048C51.395,9.048 51.288,9.093 51.205,9.182C51.121,9.273 51.08,9.391 51.08,9.537L51.08,10.836C51.08,11.011 51.12,11.148 51.199,11.253C51.279,11.356 51.388,11.409 51.527,11.409L60.148,11.409C60.272,11.409 60.389,11.35 60.497,11.231C60.604,11.113 60.658,10.982 60.658,10.836L60.658,9.537C60.658,9.377 60.614,9.256 60.528,9.173C60.441,9.09 60.314,9.048 60.148,9.048Z" style="fill:url(#_Linear5);"/>
        <path d="M70.772,12.027C70.323,12.537 69.756,12.792 69.071,12.792C68.383,12.792 67.818,12.539 67.375,12.033C66.931,11.528 66.71,10.878 66.71,10.088C66.71,9.297 66.931,8.649 67.375,8.143C67.818,7.637 68.383,7.384 69.071,7.384C69.763,7.384 70.332,7.637 70.776,8.143C71.218,8.649 71.441,9.297 71.441,10.088C71.441,10.872 71.216,11.519 70.772,12.027ZM69.372,5.169C68.741,5.169 68.174,5.288 67.672,5.529C67.169,5.767 66.741,6.122 66.388,6.594L66.388,5.845C66.388,5.706 66.338,5.601 66.242,5.529C66.144,5.454 65.996,5.419 65.795,5.419L64.193,5.419C63.714,5.419 63.378,5.505 63.185,5.678C62.99,5.853 62.893,6.144 62.893,6.552C62.893,6.926 62.99,7.211 63.185,7.405C63.378,7.599 63.659,7.696 64.027,7.696L64.193,7.696L64.193,16.878L63.58,16.878C63.108,16.878 62.773,16.968 62.577,17.15C62.379,17.329 62.28,17.623 62.28,18.033C62.28,18.441 62.377,18.731 62.571,18.901C62.765,19.072 63.101,19.156 63.58,19.156L67.989,19.156C68.467,19.156 68.806,19.069 69.008,18.896C69.209,18.722 69.309,18.435 69.309,18.033C69.309,17.623 69.207,17.329 69.004,17.15C68.798,16.968 68.461,16.878 67.989,16.878L66.668,16.878L66.668,14.05C67.029,14.348 67.453,14.574 67.942,14.73C68.431,14.888 68.956,14.965 69.518,14.965C70.896,14.965 72.041,14.491 72.95,13.545C73.857,12.6 74.311,11.405 74.311,9.963C74.311,8.584 73.844,7.439 72.909,6.531C71.972,5.623 70.793,5.169 69.372,5.169Z" style="fill:url(#_Linear6);"/>
        <path d="M83.152,12.344C82.743,12.635 82.327,12.851 81.904,12.99C81.482,13.128 81.031,13.198 80.551,13.198C80.032,13.198 79.634,13.091 79.355,12.88C79.078,12.668 78.939,12.362 78.939,11.959C78.939,11.51 79.156,11.156 79.59,10.899C80.023,10.643 80.621,10.514 81.383,10.514C81.632,10.514 81.904,10.534 82.196,10.57C82.486,10.609 82.804,10.667 83.152,10.744L83.152,12.344ZM85.834,12.75L85.667,12.75L85.667,8.892C85.667,7.534 85.349,6.57 84.711,6.001C84.074,5.432 83.017,5.148 81.541,5.148C80.127,5.148 79.007,5.314 78.186,5.643C77.363,5.971 76.954,6.418 76.954,6.978C76.954,7.292 77.055,7.542 77.256,7.733C77.456,7.924 77.719,8.018 78.045,8.018C78.379,8.018 78.901,7.849 79.61,7.509C80.322,7.169 80.906,7 81.363,7C81.953,7 82.397,7.162 82.7,7.488C83.001,7.814 83.152,8.29 83.152,8.914L83.152,9.11C82.688,9.034 82.267,8.979 81.892,8.944C81.519,8.909 81.167,8.892 80.834,8.892C79.343,8.892 78.184,9.181 77.36,9.755C76.534,10.331 76.122,11.138 76.122,12.178C76.122,13.142 76.439,13.9 77.079,14.455C77.715,15.01 78.593,15.287 79.71,15.287C80.367,15.287 81.02,15.187 81.666,14.986C82.309,14.785 82.919,14.494 83.496,14.113C83.605,14.458 83.746,14.698 83.917,14.83C84.085,14.962 84.342,15.028 84.692,15.028L85.667,15.028C86.141,15.028 86.478,14.938 86.682,14.763C86.887,14.586 86.99,14.296 86.99,13.894C86.99,13.526 86.889,13.244 86.692,13.046C86.496,12.85 86.208,12.75 85.834,12.75Z" style="fill:url(#_Linear7);"/>
        <path d="M96.332,12.027C95.884,12.537 95.318,12.792 94.63,12.792C93.946,12.792 93.38,12.539 92.935,12.033C92.494,11.528 92.271,10.878 92.271,10.088C92.271,9.297 92.494,8.649 92.935,8.143C93.38,7.637 93.946,7.384 94.63,7.384C95.325,7.384 95.894,7.637 96.335,8.143C96.781,8.649 97.002,9.297 97.002,10.088C97.002,10.872 96.778,11.519 96.332,12.027ZM94.932,5.169C94.303,5.169 93.735,5.288 93.234,5.529C92.73,5.767 92.301,6.122 91.949,6.594L91.949,5.845C91.949,5.706 91.9,5.601 91.801,5.529C91.706,5.454 91.556,5.419 91.355,5.419L89.754,5.419C89.275,5.419 88.94,5.505 88.746,5.678C88.55,5.853 88.456,6.144 88.456,6.552C88.456,6.926 88.55,7.211 88.746,7.405C88.94,7.599 89.22,7.696 89.588,7.696L89.754,7.696L89.754,16.878L89.139,16.878C88.669,16.878 88.334,16.968 88.137,17.15C87.939,17.329 87.84,17.623 87.84,18.033C87.84,18.441 87.937,18.731 88.133,18.901C88.325,19.072 88.663,19.156 89.139,19.156L93.549,19.156C94.028,19.156 94.368,19.069 94.569,18.896C94.77,18.722 94.871,18.435 94.871,18.033C94.871,17.623 94.768,17.329 94.564,17.15C94.359,16.968 94.021,16.878 93.549,16.878L92.229,16.878L92.229,14.05C92.59,14.348 93.015,14.574 93.503,14.73C93.99,14.888 94.516,14.965 95.079,14.965C96.459,14.965 97.601,14.491 98.509,13.545C99.418,12.6 99.872,11.405 99.872,9.963C99.872,8.584 99.405,7.439 98.468,6.531C97.534,5.623 96.353,5.169 94.932,5.169Z" style="fill:url(#_Linear8);"/>
        <path d="M110.679,12.75L108.44,12.75L108.44,5.866C108.44,5.728 108.391,5.618 108.285,5.537C108.183,5.459 108.032,5.419 107.838,5.419L104.708,5.419C104.231,5.419 103.894,5.505 103.699,5.678C103.507,5.853 103.408,6.144 103.408,6.552C103.408,6.961 103.509,7.253 103.709,7.431C103.911,7.608 104.243,7.696 104.708,7.696L105.883,7.696L105.883,12.75L103.649,12.75C103.163,12.75 102.82,12.836 102.624,13.009C102.425,13.184 102.326,13.471 102.326,13.874C102.326,14.283 102.429,14.577 102.632,14.756C102.839,14.938 103.176,15.028 103.649,15.028L110.679,15.028C111.148,15.028 111.486,14.938 111.691,14.756C111.896,14.577 111.998,14.283 111.998,13.874C111.998,13.471 111.897,13.184 111.695,13.009C111.494,12.836 111.155,12.75 110.679,12.75Z" style="fill:url(#_Linear9);"/>
        <path d="M106.924,3.973C107.478,3.973 107.83,3.889 107.979,3.718C108.128,3.548 108.202,3.109 108.202,2.402C108.202,1.669 108.118,1.204 107.952,1.01C107.787,0.815 107.449,0.719 106.943,0.719C106.396,0.719 106.044,0.839 105.883,1.083C105.725,1.325 105.646,1.89 105.646,2.777C105.646,3.256 105.722,3.575 105.876,3.733C106.035,3.894 106.383,3.973 106.924,3.973Z" style="fill:url(#_Linear10);"/>
        <path d="M116.938,9.214C117.118,8.535 117.438,8.026 117.901,7.691C118.361,7.355 118.97,7.187 119.724,7.187C120.508,7.187 121.145,7.363 121.634,7.717C122.122,8.07 122.426,8.57 122.544,9.214L116.938,9.214ZM124.867,10.607C125.063,10.456 125.164,10.174 125.164,9.765C125.164,8.483 124.671,7.401 123.687,6.516C122.701,5.631 121.462,5.189 119.966,5.189C118.286,5.189 116.922,5.662 115.871,6.603C114.823,7.547 114.298,8.756 114.298,10.233C114.298,11.718 114.823,12.931 115.871,13.874C116.922,14.815 118.286,15.287 119.966,15.287C121.386,15.287 122.577,15.053 123.543,14.58C124.506,14.108 124.987,13.548 124.987,12.896C124.987,12.598 124.903,12.353 124.742,12.162C124.58,11.972 124.37,11.876 124.113,11.876C123.941,11.876 123.433,12.085 122.595,12.506C121.756,12.925 120.906,13.134 120.048,13.134C119.188,13.134 118.499,12.943 117.983,12.563C117.468,12.182 117.118,11.606 116.938,10.836L123.646,10.836C124.263,10.836 124.669,10.761 124.867,10.607Z" style="fill:url(#_Linear11);"/>
        <path d="M137.737,5.611C137.335,5.303 136.79,5.148 136.104,5.148C135.349,5.148 134.642,5.322 133.988,5.669C133.333,6.015 132.628,6.594 131.873,7.405L131.873,5.866C131.873,5.728 131.819,5.618 131.714,5.537C131.612,5.459 131.466,5.419 131.279,5.419L129.063,5.419C128.578,5.419 128.241,5.505 128.05,5.678C127.859,5.853 127.763,6.144 127.763,6.552C127.763,6.961 127.862,7.253 128.062,7.431C128.259,7.608 128.593,7.696 129.063,7.696L129.509,7.696L129.509,12.75L128.722,12.75C128.235,12.75 127.895,12.836 127.695,13.009C127.499,13.184 127.4,13.471 127.4,13.874C127.4,14.283 127.501,14.577 127.702,14.756C127.903,14.938 128.243,15.028 128.722,15.028L134.535,15.028C135.005,15.028 135.341,14.938 135.538,14.756C135.734,14.577 135.834,14.283 135.834,13.874C135.834,13.471 135.734,13.184 135.538,13.009C135.341,12.836 135.005,12.75 134.535,12.75L132.08,12.75L132.08,9.381C132.696,8.756 133.231,8.295 133.681,7.999C134.132,7.7 134.524,7.55 134.856,7.55C135.021,7.55 135.318,7.666 135.745,7.893C136.173,8.123 136.54,8.237 136.854,8.237C137.289,8.237 137.646,8.108 137.925,7.847C138.201,7.586 138.34,7.256 138.34,6.853C138.34,6.334 138.139,5.92 137.737,5.611Z" style="fill:url(#_Linear12);"/>
        <path d="M149.242,10C148.655,9.546 147.581,9.205 146.013,8.974C145.806,8.949 145.521,8.914 145.162,8.872C143.914,8.705 143.289,8.379 143.289,7.893C143.289,7.582 143.438,7.337 143.737,7.159C144.033,6.984 144.455,6.895 144.996,6.895C145.687,6.895 146.378,7.143 147.068,7.639C147.758,8.133 148.247,8.382 148.53,8.382C148.807,8.382 149.023,8.3 149.176,8.138C149.328,7.975 149.404,7.745 149.404,7.446L149.404,6.168C149.404,5.814 149.33,5.548 149.183,5.372C149.03,5.196 148.816,5.106 148.53,5.106C148.33,5.106 148.148,5.148 147.982,5.231C147.821,5.314 147.665,5.443 147.522,5.616C147.022,5.464 146.534,5.351 146.062,5.279C145.587,5.205 145.122,5.169 144.672,5.169C143.362,5.169 142.354,5.437 141.646,5.97C140.938,6.504 140.586,7.259 140.586,8.237C140.586,9.062 140.88,9.719 141.468,10.208C142.059,10.695 142.957,11.024 144.163,11.19C144.364,11.225 144.641,11.263 144.996,11.304C146.595,11.52 147.397,11.908 147.397,12.469C147.397,12.782 147.248,13.034 146.949,13.229C146.653,13.423 146.252,13.52 145.753,13.52C145.18,13.52 144.666,13.443 144.214,13.291C143.766,13.139 143.368,12.91 143.029,12.604C142.923,12.5 142.797,12.342 142.645,12.126C142.388,11.731 142.055,11.534 141.646,11.534C141.271,11.534 141.009,11.628 140.855,11.818C140.705,12.01 140.627,12.334 140.627,12.792L140.627,14.174C140.627,14.612 140.687,14.91 140.81,15.07C140.93,15.229 141.141,15.308 141.438,15.308C141.64,15.308 141.833,15.271 142.027,15.198C142.217,15.126 142.4,15.021 142.583,14.881C143.061,15.021 143.558,15.126 144.069,15.198C144.581,15.271 145.116,15.308 145.668,15.308C147.093,15.308 148.19,15.021 148.963,14.45C149.735,13.879 150.12,13.069 150.12,12.022C150.12,11.127 149.829,10.454 149.242,10Z" style="fill:url(#_Linear13);"/>
        <rect x="0.583" y="24.25" width="150" height="8.75" style="fill:rgb(243,109,44);fill-rule:nonzero;"/>
        <path d="M1.569,30.916L3.614,30.916L3.614,30.462L2.904,30.462L2.904,28.467L4.743,30.462L4.161,30.462L4.161,30.916L6.042,30.916L6.042,30.462L5.545,30.462L3.657,28.445L5.503,26.727L5.886,26.727L5.886,26.273L4.118,26.273L4.118,26.727L4.708,26.727L2.904,28.424L2.904,26.727L3.614,26.727L3.614,26.273L1.569,26.273L1.569,26.727L2.279,26.727L2.279,30.462L1.569,30.462L1.569,30.916Z" style="fill:white;fill-rule:nonzero;"/>
        <path d="M7.69,29.297C7.69,28.63 8.059,28.062 8.79,28.062C9.522,28.062 9.862,28.63 9.862,29.297C9.862,29.965 9.522,30.533 8.79,30.533C8.059,30.533 7.69,29.965 7.69,29.297ZM7.065,29.297C7.065,30.355 7.739,30.987 8.79,30.987C9.841,30.987 10.487,30.355 10.487,29.297C10.487,28.239 9.841,27.608 8.79,27.608C7.739,27.608 7.065,28.239 7.065,29.297Z" style="fill:white;fill-rule:nonzero;"/>
        <path d="M11.736,30.916L13.44,30.916L13.44,30.462L12.879,30.462L12.879,29.077C12.879,28.502 13.178,28.062 13.802,28.062C14.37,28.062 14.548,28.389 14.548,28.907L14.548,30.462L13.987,30.462L13.987,30.916L15.691,30.916L15.691,30.462L15.13,30.462L15.13,28.786C15.13,28.012 14.789,27.608 13.98,27.608C13.497,27.608 13.05,27.856 12.894,28.268L12.879,28.268L12.879,27.679L11.736,27.679L11.736,28.133L12.297,28.133L12.297,30.462L11.736,30.462L11.736,30.916Z" style="fill:white;fill-rule:nonzero;"/>
        <path d="M18.908,27.679L17.85,27.679L17.85,26.77L17.268,26.969L17.268,27.679L16.636,27.679L16.636,28.133L17.268,28.133L17.268,29.766C17.268,30.426 17.296,30.987 18.12,30.987C18.815,30.987 19.071,30.59 19.071,29.922L18.574,29.922C18.574,30.192 18.553,30.533 18.205,30.533C17.899,30.533 17.85,30.291 17.85,30.022L17.85,28.133L18.908,28.133L18.908,27.679Z" style="fill:white;fill-rule:nonzero;"/>
        <path d="M22.642,30.916L23.792,30.916L23.792,30.462L23.224,30.462L23.224,28.609C23.224,27.771 22.55,27.608 21.783,27.608C21.087,27.608 20.434,27.87 20.391,28.616L21.016,28.616C21.059,28.154 21.421,28.062 21.861,28.062C22.372,28.062 22.642,28.232 22.642,28.751L22.642,28.942L22.017,28.942C21.236,28.942 20.271,28.999 20.271,29.986C20.271,30.71 20.895,30.987 21.541,30.987C22.06,30.987 22.486,30.76 22.628,30.249L22.642,30.249L22.642,30.916ZM20.895,29.986C20.895,29.397 21.733,29.397 22.152,29.397L22.642,29.397C22.642,30.014 22.33,30.533 21.612,30.533C21.265,30.533 20.895,30.412 20.895,29.986Z" style="fill:white;fill-rule:nonzero;"/>
        <path d="M24.829,30.916L26.483,30.916L26.483,30.462L25.972,30.462L25.972,29.738L26.597,29.219L27.392,30.462L26.966,30.462L26.966,30.916L28.457,30.916L28.457,30.462L28.059,30.462L27.03,28.864L27.91,28.133L28.379,28.133L28.379,27.679L26.739,27.679L26.739,28.133L27.25,28.133L27.25,28.147L25.972,29.205L25.972,26.273L24.829,26.273L24.829,26.727L25.39,26.727L25.39,30.462L24.829,30.462L24.829,30.916Z" style="fill:white;fill-rule:nonzero;"/>
        <path d="M31.695,27.679L30.637,27.679L30.637,26.77L30.055,26.969L30.055,27.679L29.423,27.679L29.423,28.133L30.055,28.133L30.055,29.766C30.055,30.426 30.083,30.987 30.907,30.987C31.602,30.987 31.858,30.59 31.858,29.922L31.361,29.922C31.361,30.192 31.34,30.533 30.992,30.533C30.687,30.533 30.637,30.291 30.637,30.022L30.637,28.133L31.695,28.133L31.695,27.679Z" style="fill:white;fill-rule:nonzero;"/>
        <rect x="33.107" y="28.736" width="1.683" height="0.54" style="fill:white;fill-rule:nonzero;"/>
        <path d="M42.068,27.679L40.925,27.679L40.925,28.133L41.486,28.133L41.486,29.517C41.486,30.107 41.194,30.533 40.563,30.533C39.98,30.533 39.817,30.206 39.817,29.688L39.817,27.679L38.674,27.679L38.674,28.133L39.235,28.133L39.235,29.809C39.235,30.568 39.576,30.987 40.413,30.987C40.882,30.987 41.344,30.753 41.471,30.355L41.486,30.355L41.486,30.916L42.629,30.916L42.629,30.462L42.068,30.462L42.068,27.679Z" style="fill:white;fill-rule:nonzero;"/>
        <path d="M43.85,30.916L45.554,30.916L45.554,30.462L44.993,30.462L44.993,29.077C44.993,28.502 45.291,28.062 45.916,28.062C46.484,28.062 46.661,28.389 46.661,28.907L46.661,30.462L46.1,30.462L46.1,30.916L47.804,30.916L47.804,30.462L47.243,30.462L47.243,28.786C47.243,28.012 46.903,27.608 46.093,27.608C45.61,27.608 45.163,27.856 45.007,28.268L44.993,28.268L44.993,27.679L43.85,27.679L43.85,28.133L44.411,28.133L44.411,30.462L43.85,30.462L43.85,30.916Z" style="fill:white;fill-rule:nonzero;"/>
        <path d="M51.645,30.916L52.795,30.916L52.795,30.462L52.227,30.462L52.227,26.273L51.07,26.273L51.07,26.727L51.645,26.727L51.645,28.275L51.631,28.275C51.453,27.835 50.942,27.608 50.481,27.608C49.515,27.608 48.912,28.303 48.912,29.297C48.912,30.263 49.402,30.987 50.481,30.987C50.985,30.987 51.461,30.71 51.631,30.298L51.645,30.298L51.645,30.916ZM51.645,29.297C51.645,29.936 51.319,30.533 50.609,30.533C49.87,30.533 49.536,29.936 49.536,29.297C49.536,28.609 49.87,28.062 50.609,28.062C51.319,28.062 51.645,28.609 51.645,29.297Z" style="fill:white;fill-rule:nonzero;"/>
        <path d="M57.9,26.727L58.66,26.727C59.129,26.727 59.796,26.741 59.796,27.508C59.796,28.239 59.242,28.346 58.646,28.346L57.9,28.346L57.9,26.727ZM57.9,28.8L58.66,28.8C59.349,28.8 59.938,28.907 59.938,29.61C59.938,30.355 59.32,30.462 58.66,30.462L57.9,30.462L57.9,28.8ZM56.558,30.916L58.66,30.916C59.682,30.916 60.605,30.753 60.605,29.61C60.605,28.921 60.201,28.531 59.54,28.538L59.54,28.523C60.116,28.438 60.463,28.005 60.463,27.508C60.463,26.301 59.427,26.273 58.66,26.273L56.558,26.273L56.558,26.727L57.276,26.727L57.276,30.462L56.558,30.462L56.558,30.916Z" style="fill:white;fill-rule:nonzero;"/>
        <path d="M65.426,29.461C65.419,28.424 65.015,27.608 63.864,27.608C62.814,27.608 62.139,28.239 62.139,29.297C62.139,30.355 62.814,30.987 63.864,30.987C64.546,30.987 65.377,30.703 65.398,29.908L64.858,29.908C64.823,30.327 64.312,30.533 63.943,30.533C63.183,30.533 62.764,30.206 62.764,29.461L65.426,29.461ZM62.764,29.006C62.764,28.41 63.261,28.062 63.822,28.062C64.454,28.062 64.809,28.417 64.844,29.006L62.764,29.006Z" style="fill:white;fill-rule:nonzero;"/>
        <path d="M66.705,30.916L68.515,30.916L68.515,30.462L67.848,30.462L67.848,29.581C67.848,28.921 67.954,28.062 68.771,28.062C68.906,28.062 69.026,28.083 69.119,28.097L69.119,27.622C69.04,27.615 68.962,27.608 68.856,27.608C68.366,27.608 67.961,27.849 67.862,28.339L67.848,28.339L67.848,27.679L66.705,27.679L66.705,28.133L67.265,28.133L67.265,30.462L66.705,30.462L66.705,30.916Z" style="fill:white;fill-rule:nonzero;"/>
        <path d="M72.59,30.916L73.74,30.916L73.74,30.462L73.172,30.462L73.172,28.609C73.172,27.771 72.498,27.608 71.731,27.608C71.035,27.608 70.382,27.87 70.34,28.616L70.964,28.616C71.007,28.154 71.369,28.062 71.809,28.062C72.32,28.062 72.59,28.232 72.59,28.751L72.59,28.942L71.965,28.942C71.184,28.942 70.219,28.999 70.219,29.986C70.219,30.71 70.844,30.987 71.49,30.987C72.008,30.987 72.434,30.76 72.576,30.249L72.59,30.249L72.59,30.916ZM70.844,29.986C70.844,29.397 71.681,29.397 72.1,29.397L72.59,29.397C72.59,30.014 72.278,30.533 71.561,30.533C71.213,30.533 70.844,30.412 70.844,29.986Z" style="fill:white;fill-rule:nonzero;"/>
        <path d="M76.985,27.679L75.927,27.679L75.927,26.77L75.345,26.969L75.345,27.679L74.713,27.679L74.713,28.133L75.345,28.133L75.345,29.766C75.345,30.426 75.374,30.987 76.197,30.987C76.893,30.987 77.149,30.59 77.149,29.922L76.652,29.922C76.652,30.192 76.63,30.533 76.282,30.533C75.977,30.533 75.927,30.291 75.927,30.022L75.927,28.133L76.985,28.133L76.985,27.679Z" style="fill:white;fill-rule:nonzero;"/>
        <path d="M81.6,27.679L80.457,27.679L80.457,28.133L81.018,28.133L81.018,29.517C81.018,30.107 80.727,30.533 80.095,30.533C79.513,30.533 79.349,30.206 79.349,29.688L79.349,27.679L78.206,27.679L78.206,28.133L78.767,28.133L78.767,29.809C78.767,30.568 79.108,30.987 79.946,30.987C80.414,30.987 80.876,30.753 81.004,30.355L81.018,30.355L81.018,30.916L82.161,30.916L82.161,30.462L81.6,30.462L81.6,27.679Z" style="fill:white;fill-rule:nonzero;"/>
        <path d="M83.382,30.916L85.086,30.916L85.086,30.462L84.525,30.462L84.525,29.077C84.525,28.502 84.823,28.062 85.448,28.062C86.016,28.062 86.193,28.389 86.193,28.907L86.193,30.462L85.633,30.462L85.633,30.916L87.337,30.916L87.337,30.462L86.776,30.462L86.776,28.786C86.776,28.012 86.435,27.608 85.625,27.608C85.143,27.608 84.695,27.856 84.539,28.268L84.525,28.268L84.525,27.679L83.382,27.679L83.382,28.133L83.943,28.133L83.943,30.462L83.382,30.462L83.382,30.916Z" style="fill:white;fill-rule:nonzero;"/>
        <path d="M92.328,27.679L91.177,27.679L91.177,28.268L91.17,28.268C90.957,27.799 90.475,27.608 89.97,27.608C88.976,27.608 88.416,28.282 88.416,29.226C88.416,30.213 89.012,30.874 89.992,30.874C90.467,30.874 90.979,30.668 91.163,30.199L91.177,30.199L91.177,30.561C91.177,31.356 90.908,31.704 90.091,31.704C89.701,31.704 89.246,31.64 89.246,31.2L88.579,31.2C88.55,32.031 89.388,32.159 90.098,32.159C90.709,32.159 91.327,31.995 91.589,31.491C91.816,31.044 91.76,30.355 91.76,29.858L91.76,28.133L92.328,28.133L92.328,27.679ZM89.04,29.226C89.04,28.488 89.41,28.062 90.176,28.062C90.844,28.062 91.177,28.602 91.177,29.226C91.177,29.88 90.837,30.419 90.12,30.419C89.395,30.419 89.04,29.901 89.04,29.226Z" style="fill:white;fill-rule:nonzero;"/>
        <path d="M94.039,30.916L94.039,30.469L94.054,30.469C94.203,30.838 94.657,30.987 95.041,30.987C95.701,30.987 96.39,30.696 96.39,29.943C96.39,29.212 95.743,29.12 95.168,29.02C94.749,28.942 94.196,28.935 94.196,28.566C94.196,28.154 94.643,28.062 94.984,28.062C95.232,28.062 95.452,28.09 95.609,28.19C95.772,28.289 95.871,28.46 95.871,28.744L96.326,28.744L96.326,27.679L95.871,27.679L95.871,28.069L95.857,28.069C95.68,27.742 95.289,27.608 94.87,27.608C94.274,27.608 93.613,27.934 93.613,28.623C93.613,29.375 94.338,29.446 94.934,29.546C95.289,29.596 95.765,29.588 95.765,30.029C95.765,30.377 95.374,30.533 95.097,30.533C94.835,30.533 94.572,30.504 94.373,30.391C94.181,30.284 94.047,30.1 94.039,29.787L93.585,29.787L93.585,30.916L94.039,30.916Z" style="fill:white;fill-rule:nonzero;"/>
        <path d="M98.299,30.916L98.299,30.469L98.313,30.469C98.463,30.838 98.917,30.987 99.3,30.987C99.961,30.987 100.649,30.696 100.649,29.943C100.649,29.212 100.003,29.12 99.428,29.02C99.009,28.942 98.455,28.935 98.455,28.566C98.455,28.154 98.903,28.062 99.244,28.062C99.492,28.062 99.712,28.09 99.868,28.19C100.032,28.289 100.131,28.46 100.131,28.744L100.585,28.744L100.585,27.679L100.131,27.679L100.131,28.069L100.117,28.069C99.939,27.742 99.549,27.608 99.13,27.608C98.534,27.608 97.873,27.934 97.873,28.623C97.873,29.375 98.597,29.446 99.194,29.546C99.549,29.596 100.025,29.588 100.025,30.029C100.025,30.377 99.634,30.533 99.357,30.533C99.094,30.533 98.832,30.504 98.633,30.391C98.441,30.284 98.306,30.1 98.299,29.787L97.845,29.787L97.845,30.916L98.299,30.916Z" style="fill:white;fill-rule:nonzero;"/>
        <path d="M104.121,27.679L103.063,27.679L103.063,26.77L102.481,26.969L102.481,27.679L101.849,27.679L101.849,28.133L102.481,28.133L102.481,29.766C102.481,30.426 102.509,30.987 103.333,30.987C104.029,30.987 104.284,30.59 104.284,29.922L103.787,29.922C103.787,30.192 103.766,30.533 103.418,30.533C103.113,30.533 103.063,30.291 103.063,30.022L103.063,28.133L104.121,28.133L104.121,27.679Z" style="fill:white;fill-rule:nonzero;"/>
        <path d="M108.821,29.461C108.814,28.424 108.409,27.608 107.259,27.608C106.208,27.608 105.534,28.239 105.534,29.297C105.534,30.355 106.208,30.987 107.259,30.987C107.941,30.987 108.771,30.703 108.793,29.908L108.253,29.908C108.218,30.327 107.706,30.533 107.337,30.533C106.577,30.533 106.159,30.206 106.159,29.461L108.821,29.461ZM106.159,29.006C106.159,28.41 106.656,28.062 107.216,28.062C107.848,28.062 108.203,28.417 108.239,29.006L106.159,29.006Z" style="fill:white;fill-rule:nonzero;"/>
        <path d="M110.05,30.916L111.754,30.916L111.754,30.462L111.193,30.462L111.193,26.273L110.05,26.273L110.05,26.727L110.611,26.727L110.611,30.462L110.05,30.462L110.05,30.916Z" style="fill:white;fill-rule:nonzero;"/>
        <path d="M112.734,30.916L114.438,30.916L114.438,30.462L113.877,30.462L113.877,26.273L112.734,26.273L112.734,26.727L113.294,26.727L113.294,30.462L112.734,30.462L112.734,30.916Z" style="fill:white;fill-rule:nonzero;"/>
        <path d="M118.846,29.461C118.839,28.424 118.435,27.608 117.284,27.608C116.234,27.608 115.559,28.239 115.559,29.297C115.559,30.355 116.234,30.987 117.284,30.987C117.966,30.987 118.797,30.703 118.818,29.908L118.278,29.908C118.243,30.327 117.732,30.533 117.363,30.533C116.603,30.533 116.184,30.206 116.184,29.461L118.846,29.461ZM116.184,29.006C116.184,28.41 116.681,28.062 117.242,28.062C117.874,28.062 118.229,28.417 118.264,29.006L116.184,29.006Z" style="fill:white;fill-rule:nonzero;"/>
        <path d="M122.773,30.916L126.6,30.916L126.6,29.347L126.06,29.347L126.06,30.462L124.108,30.462L124.108,26.727L124.946,26.727L124.946,26.273L122.773,26.273L122.773,26.727L123.483,26.727L123.483,30.462L122.773,30.462L122.773,30.916Z" style="fill:white;fill-rule:nonzero;"/>
        <path d="M131.151,27.679L130.008,27.679L130.008,28.133L130.569,28.133L130.569,29.517C130.569,30.107 130.278,30.533 129.646,30.533C129.063,30.533 128.9,30.206 128.9,29.688L128.9,27.679L127.757,27.679L127.757,28.133L128.318,28.133L128.318,29.809C128.318,30.568 128.659,30.987 129.497,30.987C129.965,30.987 130.427,30.753 130.554,30.355L130.569,30.355L130.569,30.916L131.712,30.916L131.712,30.462L131.151,30.462L131.151,27.679Z" style="fill:white;fill-rule:nonzero;"/>
        <path d="M133.004,30.916L135.872,30.916L135.872,29.759L135.375,29.759L135.375,30.462L133.692,30.462L135.837,28.133L135.837,27.679L133.061,27.679L133.061,28.765L133.558,28.765L133.558,28.133L135.127,28.133L133.004,30.462L133.004,30.916Z" style="fill:white;fill-rule:nonzero;"/>
        <path d="M140.544,29.461C140.537,28.424 140.132,27.608 138.982,27.608C137.931,27.608 137.256,28.239 137.256,29.297C137.256,30.355 137.931,30.987 138.982,30.987C139.663,30.987 140.494,30.703 140.515,29.908L139.976,29.908C139.94,30.327 139.429,30.533 139.06,30.533C138.3,30.533 137.881,30.206 137.881,29.461L140.544,29.461ZM137.881,29.006C137.881,28.41 138.378,28.062 138.939,28.062C139.571,28.062 139.926,28.417 139.962,29.006L137.881,29.006Z" style="fill:white;fill-rule:nonzero;"/>
        <path d="M141.822,30.916L143.633,30.916L143.633,30.462L142.965,30.462L142.965,29.581C142.965,28.921 143.072,28.062 143.888,28.062C144.023,28.062 144.144,28.083 144.236,28.097L144.236,27.622C144.158,27.615 144.08,27.608 143.974,27.608C143.484,27.608 143.079,27.849 142.98,28.339L142.965,28.339L142.965,27.679L141.822,27.679L141.822,28.133L142.383,28.133L142.383,30.462L141.822,30.462L141.822,30.916Z" style="fill:white;fill-rule:nonzero;"/>
        <path d="M145.322,30.916L147.026,30.916L147.026,30.462L146.466,30.462L146.466,29.077C146.466,28.502 146.764,28.062 147.389,28.062C147.957,28.062 148.134,28.389 148.134,28.907L148.134,30.462L147.573,30.462L147.573,30.916L149.277,30.916L149.277,30.462L148.716,30.462L148.716,28.786C148.716,28.012 148.375,27.608 147.566,27.608C147.083,27.608 146.636,27.856 146.48,28.268L146.466,28.268L146.466,27.679L145.322,27.679L145.322,28.133L145.883,28.133L145.883,30.462L145.322,30.462L145.322,30.916Z" style="fill:white;fill-rule:nonzero;"/>
    </g>
    <defs>
        <linearGradient id="_Linear1" x1="0" y1="0" x2="1" y2="0" gradientUnits="userSpaceOnUse" gradientTransform="matrix(198.666,-1.5,1.5,198.666,-49.7441,10.6314)"><stop offset="0" style="stop-color:white;stop-opacity:1"/><stop offset="1" style="stop-color:rgb(35,31,32);stop-opacity:1"/></linearGradient>
        <linearGradient id="_Linear2" x1="0" y1="0" x2="1" y2="0" gradientUnits="userSpaceOnUse" gradientTransform="matrix(198.658,-1.49993,1.49993,198.658,-49.7397,10.7183)"><stop offset="0" style="stop-color:white;stop-opacity:1"/><stop offset="1" style="stop-color:rgb(35,31,32);stop-opacity:1"/></linearGradient>
        <linearGradient id="_Linear3" x1="0" y1="0" x2="1" y2="0" gradientUnits="userSpaceOnUse" gradientTransform="matrix(198.666,-1.49999,1.49999,198.666,-49.7432,10.7232)"><stop offset="0" style="stop-color:white;stop-opacity:1"/><stop offset="1" style="stop-color:rgb(35,31,32);stop-opacity:1"/></linearGradient>
        <linearGradient id="_Linear4" x1="0" y1="0" x2="1" y2="0" gradientUnits="userSpaceOnUse" gradientTransform="matrix(198.666,-1.5,1.5,198.666,-49.7417,10.9214)"><stop offset="0" style="stop-color:white;stop-opacity:1"/><stop offset="1" style="stop-color:rgb(35,31,32);stop-opacity:1"/></linearGradient>
        <linearGradient id="_Linear5" x1="0" y1="0" x2="1" y2="0" gradientUnits="userSpaceOnUse" gradientTransform="matrix(198.667,-1.5,1.5,198.667,-49.7412,11.0249)"><stop offset="0" style="stop-color:white;stop-opacity:1"/><stop offset="1" style="stop-color:rgb(35,31,32);stop-opacity:1"/></linearGradient>
        <linearGradient id="_Linear6" x1="0" y1="0" x2="1" y2="0" gradientUnits="userSpaceOnUse" gradientTransform="matrix(198.667,-1.5,1.5,198.667,-49.7256,13.0562)"><stop offset="0" style="stop-color:white;stop-opacity:1"/><stop offset="1" style="stop-color:rgb(35,31,32);stop-opacity:1"/></linearGradient>
        <linearGradient id="_Linear7" x1="0" y1="0" x2="1" y2="0" gradientUnits="userSpaceOnUse" gradientTransform="matrix(198.658,-1.49993,1.49993,198.658,-49.7334,11.2007)"><stop offset="0" style="stop-color:white;stop-opacity:1"/><stop offset="1" style="stop-color:rgb(35,31,32);stop-opacity:1"/></linearGradient>
        <linearGradient id="_Linear8" x1="0" y1="0" x2="1" y2="0" gradientUnits="userSpaceOnUse" gradientTransform="matrix(198.667,-1.5,1.5,198.667,-49.7236,13.2496)"><stop offset="0" style="stop-color:white;stop-opacity:1"/><stop offset="1" style="stop-color:rgb(35,31,32);stop-opacity:1"/></linearGradient>
        <linearGradient id="_Linear9" x1="0" y1="0" x2="1" y2="0" gradientUnits="userSpaceOnUse" gradientTransform="matrix(198.666,-1.5,1.5,198.666,-49.7388,11.4117)"><stop offset="0" style="stop-color:white;stop-opacity:1"/><stop offset="1" style="stop-color:rgb(35,31,32);stop-opacity:1"/></linearGradient>
        <linearGradient id="_Linear10" x1="0" y1="0" x2="1" y2="0" gradientUnits="userSpaceOnUse" gradientTransform="matrix(198.666,-1.5,1.5,198.666,-49.7974,3.52885)"><stop offset="0" style="stop-color:white;stop-opacity:1"/><stop offset="1" style="stop-color:rgb(35,31,32);stop-opacity:1"/></linearGradient>
        <linearGradient id="_Linear11" x1="0" y1="0" x2="1" y2="0" gradientUnits="userSpaceOnUse" gradientTransform="matrix(198.667,-1.5,1.5,198.667,-49.7368,11.5191)"><stop offset="0" style="stop-color:white;stop-opacity:1"/><stop offset="1" style="stop-color:rgb(35,31,32);stop-opacity:1"/></linearGradient>
        <linearGradient id="_Linear12" x1="0" y1="0" x2="1" y2="0" gradientUnits="userSpaceOnUse" gradientTransform="matrix(198.666,-1.49999,1.49999,198.666,-49.7373,11.4849)"><stop offset="0" style="stop-color:white;stop-opacity:1"/><stop offset="1" style="stop-color:rgb(35,31,32);stop-opacity:1"/></linearGradient>
        <linearGradient id="_Linear13" x1="0" y1="0" x2="1" y2="0" gradientUnits="userSpaceOnUse" gradientTransform="matrix(198.666,-1.5,1.5,198.666,-49.7358,11.6929)"><stop offset="0" style="stop-color:white;stop-opacity:1"/><stop offset="1" style="stop-color:rgb(35,31,32);stop-opacity:1"/></linearGradient>
    </defs>
</svg>
