<svg id="Ebene_1" data-name="Ebene 1" xmlns="http://www.w3.org/2000/svg" viewBox="0 0 496.17 82.79"><defs><style>.cls-1{fill:#ffffff;}.cls-2{fill:#94c11a;}</style></defs><path class="cls-1" d="M294.55,67.4H295a.41.41,0,0,0,.28-.09c.72-.82,1.66-1.91,2.82-3.29s2.06-2.46,2.67-3.25a.55.55,0,0,1,.14-.13.36.36,0,0,1,.19,0h2.32c.14,0,.2,0,.2.14a.46.46,0,0,1-.09.18q-1.14,1.34-2.87,3.3l-3.2,3.63a.8.8,0,0,0-.16.19.33.33,0,0,0-.05.15.3.3,0,0,0,.05.15,1,1,0,0,0,.14.17q1.33,1.5,3.13,3.57c1.19,1.38,2.29,2.66,3.28,3.84a.24.24,0,0,1,.1.18.12.12,0,0,1-.06.09.2.2,0,0,1-.15,0H301.5a.81.81,0,0,1-.25,0,.86.86,0,0,1-.17-.13c-.5-.64-1.36-1.68-2.57-3.1l-3.13-3.66a.38.38,0,0,0-.28-.12h-.55a.13.13,0,0,0-.14.14V76a.23.23,0,0,1-.06.16.18.18,0,0,1-.17.07h-1.79a.24.24,0,0,1-.23-.23V60.82a.19.19,0,0,1,.07-.17.23.23,0,0,1,.16-.06h1.79a.21.21,0,0,1,.17.06.22.22,0,0,1,.06.17v6.44A.13.13,0,0,0,294.55,67.4Z" transform="translate(-20.49 -21.04)"/><path class="cls-1" d="M315,64.55a4.22,4.22,0,0,1,1.87,2.14,10.79,10.79,0,0,1,0,7A4.19,4.19,0,0,1,315,75.78a8.42,8.42,0,0,1-6.86,0,4.26,4.26,0,0,1-1.88-2.11,10.62,10.62,0,0,1,0-7,4.28,4.28,0,0,1,1.88-2.14,8.32,8.32,0,0,1,6.86,0Zm-1.25,9.61a2.58,2.58,0,0,0,1.12-1.45,8.33,8.33,0,0,0,.32-2.53,8.5,8.5,0,0,0-.32-2.56,2.61,2.61,0,0,0-1.12-1.46,5.12,5.12,0,0,0-4.37,0,2.61,2.61,0,0,0-1.12,1.46,7.84,7.84,0,0,0-.34,2.56,7.69,7.69,0,0,0,.34,2.53,2.58,2.58,0,0,0,1.12,1.45,5.21,5.21,0,0,0,4.37,0Z" transform="translate(-20.49 -21.04)"/><path class="cls-1" d="M331.71,76.16a.21.21,0,0,1-.18.07h-1.72a.24.24,0,0,1-.23-.23V69a9.33,9.33,0,0,0-.15-1.89,1.76,1.76,0,0,0-.66-1.07,2.61,2.61,0,0,0-1.56-.38,3.53,3.53,0,0,0-2.36.73,3.64,3.64,0,0,0-1.11,2.17,9.41,9.41,0,0,0-.14,1.91V76a.23.23,0,0,1-.06.16.21.21,0,0,1-.17.07h-1.73a.21.21,0,0,1-.16-.07.24.24,0,0,1-.07-.16V64.32a.25.25,0,0,1,.07-.18.3.3,0,0,1,.16,0h1.73a.29.29,0,0,1,.17,0,.24.24,0,0,1,.06.18v1.47c0,.08,0,.11,0,.11s.06,0,.11-.09a4.15,4.15,0,0,1,1.61-1.51,5.13,5.13,0,0,1,2.32-.49,5.19,5.19,0,0,1,1.65.22,2.84,2.84,0,0,1,1.13.67,5.25,5.25,0,0,1,.88,1.18c0,.05.06.07.09.07s.06,0,.09-.07a4.42,4.42,0,0,1,1.67-1.59,5.28,5.28,0,0,1,2.4-.48,5.34,5.34,0,0,1,2.58.52,2.85,2.85,0,0,1,1.33,1.49,6.87,6.87,0,0,1,.39,2.52V76a.23.23,0,0,1-.06.16.18.18,0,0,1-.17.07h-1.72a.24.24,0,0,1-.23-.23V69a6.61,6.61,0,0,0-.23-1.92,1.83,1.83,0,0,0-.81-1.07,3.07,3.07,0,0,0-1.59-.35,3.13,3.13,0,0,0-2.19.69,3.48,3.48,0,0,0-1,2,14,14,0,0,0-.14,2.07V76A.28.28,0,0,1,331.71,76.16Z" transform="translate(-20.49 -21.04)"/><path class="cls-1" d="M344.39,80.77a.19.19,0,0,1-.07-.17V64.32a.21.21,0,0,1,.07-.18.3.3,0,0,1,.16,0h1.73a.29.29,0,0,1,.17,0,.24.24,0,0,1,.06.18v1.15c0,.06,0,.1.05.11a.09.09,0,0,0,.11,0,4.24,4.24,0,0,1,3.68-1.73,5.73,5.73,0,0,1,3.21.76,3.91,3.91,0,0,1,1.57,2.13,11.56,11.56,0,0,1,.44,3.46,11.27,11.27,0,0,1-.44,3.36,4,4,0,0,1-1.59,2.18,6.28,6.28,0,0,1-5.32.4,3.32,3.32,0,0,1-1.55-1.23c0-.06-.07-.08-.11-.05s-.05.07-.05.15V80.6a.22.22,0,0,1-.06.17.24.24,0,0,1-.17.06h-1.73A.25.25,0,0,1,344.39,80.77ZM352,74.2a2.42,2.42,0,0,0,1-1.42,8.75,8.75,0,0,0,.31-2.62,8.94,8.94,0,0,0-.31-2.67,2.32,2.32,0,0,0-1-1.39,4.2,4.2,0,0,0-2.07-.43,4.12,4.12,0,0,0-2.18.49,2.59,2.59,0,0,0-1.11,1.46,8.14,8.14,0,0,0-.32,2.54,7.9,7.9,0,0,0,.33,2.49,2.71,2.71,0,0,0,1.12,1.49,4,4,0,0,0,2.16.5A4.08,4.08,0,0,0,352,74.2Z" transform="translate(-20.49 -21.04)"/><path class="cls-1" d="M365.2,76.51a8.37,8.37,0,0,1-3.65-.68,4.13,4.13,0,0,1-2-2.07,8.7,8.7,0,0,1-.64-3.62,6.89,6.89,0,0,1,1.43-4.73,5.45,5.45,0,0,1,4.3-1.6,5.79,5.79,0,0,1,3.22.76,3.9,3.9,0,0,1,1.58,2,9.44,9.44,0,0,1,.42,3,7.64,7.64,0,0,1-.07,1.08.15.15,0,0,1-.08.12l-.13,0h-8.32a.16.16,0,0,0-.09,0,.14.14,0,0,0-.05.11,4.83,4.83,0,0,0,.5,2.17A2.55,2.55,0,0,0,363,74.28a6.82,6.82,0,0,0,2.42.36,10,10,0,0,0,1.64-.13,5.47,5.47,0,0,0,1.38-.42l.11,0c.11,0,.17,0,.18.14l.3,1.42v.05c0,.08,0,.14-.16.21A9,9,0,0,1,365.2,76.51Zm-3.9-7.46h6.3a.1.1,0,0,0,.09,0,.37.37,0,0,0,0-.12,5.55,5.55,0,0,0-.29-1.89,1.82,1.82,0,0,0-.94-1,4.41,4.41,0,0,0-1.9-.33,4.12,4.12,0,0,0-2,.4,2.33,2.33,0,0,0-1,1.1,6.15,6.15,0,0,0-.41,1.79C361.16,69,361.2,69.05,361.3,69.05Z" transform="translate(-20.49 -21.04)"/><path class="cls-1" d="M376.65,74.1a.73.73,0,0,0,.38.41,1.88,1.88,0,0,0,.71.11H379a.21.21,0,0,1,.17.06.22.22,0,0,1,.06.17V76a.29.29,0,0,1,0,.16.23.23,0,0,1-.14.09,10.17,10.17,0,0,1-1.8.12,4.4,4.4,0,0,1-1.72-.28,1.72,1.72,0,0,1-.9-.92,4.88,4.88,0,0,1-.27-1.82V66.06c0-.09,0-.13-.14-.13h-1.73a.24.24,0,0,1-.23-.23V64.32a.25.25,0,0,1,.07-.18.3.3,0,0,1,.16,0h1.73a.13.13,0,0,0,.14-.14V61.17a.24.24,0,0,1,.06-.18.31.31,0,0,1,.17-.05h1.72a.2.2,0,0,1,.23.23V64a.13.13,0,0,0,.14.14h2.71a.19.19,0,0,1,.23.23V65.7a.3.3,0,0,1-.05.16.25.25,0,0,1-.18.07h-2.71c-.09,0-.14,0-.14.13v7.23A2,2,0,0,0,376.65,74.1Z" transform="translate(-20.49 -21.04)"/><path class="cls-1" d="M388.27,76.51a8.37,8.37,0,0,1-3.65-.68,4.19,4.19,0,0,1-2-2.07,8.87,8.87,0,0,1-.63-3.62,6.89,6.89,0,0,1,1.43-4.73,5.45,5.45,0,0,1,4.3-1.6,5.79,5.79,0,0,1,3.22.76,3.83,3.83,0,0,1,1.57,2,9.14,9.14,0,0,1,.43,3,7.64,7.64,0,0,1-.07,1.08.18.18,0,0,1-.08.12l-.13,0h-8.32a.16.16,0,0,0-.09,0,.12.12,0,0,0-.05.11,4.83,4.83,0,0,0,.49,2.17,2.62,2.62,0,0,0,1.38,1.19,6.88,6.88,0,0,0,2.43.36,9.78,9.78,0,0,0,1.63-.13,5.23,5.23,0,0,0,1.38-.42l.12,0c.11,0,.17,0,.18.14l.3,1.42v.05c0,.08,0,.14-.16.21A9,9,0,0,1,388.27,76.51Zm-3.91-7.46h6.31a.1.1,0,0,0,.09,0,.37.37,0,0,0,0-.12,5.55,5.55,0,0,0-.29-1.89,1.82,1.82,0,0,0-.94-1,4.41,4.41,0,0,0-1.9-.33,4.1,4.1,0,0,0-2,.4,2.33,2.33,0,0,0-1,1.1,6.15,6.15,0,0,0-.41,1.79C384.23,69,384.27,69.05,384.36,69.05Z" transform="translate(-20.49 -21.04)"/><path class="cls-1" d="M396.85,64.14a.3.3,0,0,1,.16,0h1.73a.26.26,0,0,1,.17,0,.24.24,0,0,1,.06.18v1.47c0,.08,0,.11,0,.11s.07,0,.1-.09a3.59,3.59,0,0,1,1.54-1.47,5.05,5.05,0,0,1,2.37-.53,5.23,5.23,0,0,1,2.56.52,2.87,2.87,0,0,1,1.32,1.49,6.87,6.87,0,0,1,.39,2.52V76a.22.22,0,0,1-.05.16.21.21,0,0,1-.18.07h-1.72a.24.24,0,0,1-.23-.23V69a7.28,7.28,0,0,0-.2-1.88,1.87,1.87,0,0,0-.78-1.08,3.19,3.19,0,0,0-1.71-.38,3.25,3.25,0,0,0-2.16.71,3.44,3.44,0,0,0-1.13,2.12,10.15,10.15,0,0,0-.16,2V76a.23.23,0,0,1-.06.16.19.19,0,0,1-.17.07H397a.21.21,0,0,1-.16-.07.24.24,0,0,1-.07-.16V64.32A.25.25,0,0,1,396.85,64.14Z" transform="translate(-20.49 -21.04)"/><path class="cls-1" d="M410.86,76.16a.2.2,0,0,1-.07-.16V74.23a.78.78,0,0,1,0-.22,1.14,1.14,0,0,1,.15-.24q1-1.35,6-7.36a.92.92,0,0,0,.14-.2.3.3,0,0,0,.05-.15c0-.09-.08-.13-.23-.13h-5.27a.26.26,0,0,1-.16-.07.21.21,0,0,1-.07-.16V64.32a.21.21,0,0,1,.07-.18.3.3,0,0,1,.16,0h8.1a.29.29,0,0,1,.17,0,.24.24,0,0,1,.06.18v1.47a.5.5,0,0,1-.05.21,1.57,1.57,0,0,1-.18.25q-1.25,1.4-3.51,4.14t-3,3.66a.37.37,0,0,0-.11.23c0,.07,0,.11.14.11h6.85a.24.24,0,0,1,.17.06.22.22,0,0,1,.06.17V76a.23.23,0,0,1-.06.16.21.21,0,0,1-.17.07H411A.21.21,0,0,1,410.86,76.16Z" transform="translate(-20.49 -21.04)"/><path class="cls-1" d="M423.1,76.16A.2.2,0,0,1,423,76V74.23a.78.78,0,0,1,0-.22.66.66,0,0,1,.15-.24q1-1.35,6-7.36a1.5,1.5,0,0,0,.14-.2.28.28,0,0,0,0-.15c0-.09-.07-.13-.23-.13h-5.26a.24.24,0,0,1-.16-.07.21.21,0,0,1-.07-.16V64.32a.21.21,0,0,1,.07-.18.28.28,0,0,1,.16,0H432a.19.19,0,0,1,.23.23v1.47a.49.49,0,0,1,0,.21,1.25,1.25,0,0,1-.19.25q-1.23,1.4-3.5,4.14t-3,3.66a.39.39,0,0,0-.12.23c0,.07.05.11.14.11h6.85a.24.24,0,0,1,.18.06.26.26,0,0,1,0,.17V76a.28.28,0,0,1,0,.16.21.21,0,0,1-.18.07h-9.1A.19.19,0,0,1,423.1,76.16Z" transform="translate(-20.49 -21.04)"/><path class="cls-1" d="M441.72,76.51a8.37,8.37,0,0,1-3.65-.68,4.13,4.13,0,0,1-2-2.07,8.7,8.7,0,0,1-.64-3.62,6.89,6.89,0,0,1,1.43-4.73,5.45,5.45,0,0,1,4.3-1.6,5.79,5.79,0,0,1,3.22.76,3.83,3.83,0,0,1,1.57,2,9.14,9.14,0,0,1,.43,3,7.64,7.64,0,0,1-.07,1.08.15.15,0,0,1-.08.12l-.13,0h-8.32a.16.16,0,0,0-.09,0,.14.14,0,0,0-.05.11,5,5,0,0,0,.49,2.17,2.6,2.6,0,0,0,1.39,1.19,6.82,6.82,0,0,0,2.42.36,10,10,0,0,0,1.64-.13,5.27,5.27,0,0,0,1.37-.42l.12,0c.11,0,.17,0,.18.14l.3,1.42v.05c0,.08-.05.14-.16.21A9,9,0,0,1,441.72,76.51Zm-3.9-7.46h6.3a.1.1,0,0,0,.09,0,.37.37,0,0,0,0-.12,5.55,5.55,0,0,0-.29-1.89,1.82,1.82,0,0,0-.94-1,4.41,4.41,0,0,0-1.9-.33,4.1,4.1,0,0,0-2,.4,2.33,2.33,0,0,0-1,1.1,6.15,6.15,0,0,0-.41,1.79C437.68,69,437.72,69.05,437.82,69.05Z" transform="translate(-20.49 -21.04)"/><path class="cls-1" d="M450.3,64.14a.3.3,0,0,1,.16,0h1.73a.26.26,0,0,1,.17,0,.24.24,0,0,1,.06.18v1.47c0,.08,0,.11.05.11s.06,0,.09-.09a3.59,3.59,0,0,1,1.54-1.47,5.05,5.05,0,0,1,2.37-.53,5.23,5.23,0,0,1,2.56.52,2.87,2.87,0,0,1,1.32,1.49,6.85,6.85,0,0,1,.4,2.52V76a.23.23,0,0,1-.06.16.21.21,0,0,1-.17.07h-1.73a.21.21,0,0,1-.16-.07.2.2,0,0,1-.07-.16V69a7.28,7.28,0,0,0-.2-1.88,1.82,1.82,0,0,0-.78-1.08,3.19,3.19,0,0,0-1.71-.38,3.29,3.29,0,0,0-2.16.71,3.44,3.44,0,0,0-1.13,2.12,10.15,10.15,0,0,0-.16,2V76a.23.23,0,0,1-.06.16.19.19,0,0,1-.17.07h-1.73a.21.21,0,0,1-.16-.07.23.23,0,0,1-.06-.16V64.32A.24.24,0,0,1,450.3,64.14Z" transform="translate(-20.49 -21.04)"/><path class="cls-1" d="M468.12,74.1a.73.73,0,0,0,.38.41,1.88,1.88,0,0,0,.71.11h1.24a.21.21,0,0,1,.17.06.22.22,0,0,1,.06.17V76a.29.29,0,0,1,0,.16.23.23,0,0,1-.14.09,10.17,10.17,0,0,1-1.8.12,4.4,4.4,0,0,1-1.72-.28,1.72,1.72,0,0,1-.9-.92,4.88,4.88,0,0,1-.27-1.82V66.06c0-.09-.05-.13-.14-.13h-1.73a.24.24,0,0,1-.23-.23V64.32a.25.25,0,0,1,.07-.18.3.3,0,0,1,.16,0h1.73a.13.13,0,0,0,.14-.14V61.17a.24.24,0,0,1,.06-.18.31.31,0,0,1,.17-.05h1.72a.2.2,0,0,1,.23.23V64a.13.13,0,0,0,.14.14h2.71a.19.19,0,0,1,.23.23V65.7a.3.3,0,0,1-.05.16.25.25,0,0,1-.18.07h-2.71c-.09,0-.14,0-.14.13v7.23A2,2,0,0,0,468.12,74.1Z" transform="translate(-20.49 -21.04)"/><path class="cls-1" d="M474.25,64.14a.28.28,0,0,1,.16,0h1.72a.19.19,0,0,1,.23.23V66.2c0,.06,0,.1,0,.11s.05,0,.08-.08a4.53,4.53,0,0,1,1.08-1.35,4.42,4.42,0,0,1,1.36-.8,3.77,3.77,0,0,1,1.35-.27.2.2,0,0,1,.23.23V65.6a.25.25,0,0,1-.06.17.21.21,0,0,1-.17.06,3.57,3.57,0,0,0-2.41.89A4.2,4.2,0,0,0,476.57,69q-.09.47-.15,1a10.61,10.61,0,0,0-.06,1.07V76a.28.28,0,0,1-.05.16.21.21,0,0,1-.18.07h-1.72a.24.24,0,0,1-.23-.23V64.32A.21.21,0,0,1,474.25,64.14Z" transform="translate(-20.49 -21.04)"/><path class="cls-1" d="M493.51,76.16a.21.21,0,0,1-.17.07h-1.73a.21.21,0,0,1-.16-.07.2.2,0,0,1-.07-.16V74.53c0-.08,0-.12,0-.12s-.07,0-.1.1a3.86,3.86,0,0,1-3.7,2A5.34,5.34,0,0,1,485,76a2.91,2.91,0,0,1-1.33-1.5,6.85,6.85,0,0,1-.39-2.51V64.32a.25.25,0,0,1,.07-.18.3.3,0,0,1,.16,0h1.73a.29.29,0,0,1,.17,0,.24.24,0,0,1,.06.18v7a7.21,7.21,0,0,0,.19,1.87,1.83,1.83,0,0,0,.77,1.08,3.07,3.07,0,0,0,1.71.38,2.91,2.91,0,0,0,2-.69,3.83,3.83,0,0,0,1.06-2.14,10,10,0,0,0,.16-2V64.32a.21.21,0,0,1,.07-.18.3.3,0,0,1,.16,0h1.73a.29.29,0,0,1,.17,0,.24.24,0,0,1,.06.18V76A.23.23,0,0,1,493.51,76.16Z" transform="translate(-20.49 -21.04)"/><path class="cls-1" d="M508.48,76.16a.19.19,0,0,1-.17.07h-1.73a.21.21,0,0,1-.16-.07.23.23,0,0,1-.06-.16V69a9.21,9.21,0,0,0-.16-1.89,1.7,1.7,0,0,0-.65-1.07,2.63,2.63,0,0,0-1.56-.38,3.51,3.51,0,0,0-2.36.73,3.7,3.7,0,0,0-1.12,2.17,10.2,10.2,0,0,0-.14,1.91V76a.22.22,0,0,1-.05.16.21.21,0,0,1-.18.07h-1.72a.24.24,0,0,1-.23-.23V64.32a.21.21,0,0,1,.07-.18.28.28,0,0,1,.16,0h1.72a.3.3,0,0,1,.18,0,.24.24,0,0,1,.05.18v1.47c0,.08,0,.11,0,.11s.06,0,.1-.09a4.22,4.22,0,0,1,1.61-1.51,6,6,0,0,1,4-.27,2.91,2.91,0,0,1,1.13.67,5.23,5.23,0,0,1,.87,1.18c0,.05.06.07.09.07s.07,0,.1-.07A4.39,4.39,0,0,1,510,64.29a5.36,5.36,0,0,1,2.41-.48,5.3,5.3,0,0,1,2.57.52,2.87,2.87,0,0,1,1.34,1.49,6.87,6.87,0,0,1,.39,2.52V76a.23.23,0,0,1-.06.16.19.19,0,0,1-.17.07H514.7a.21.21,0,0,1-.16-.07.24.24,0,0,1-.07-.16V69a6.28,6.28,0,0,0-.23-1.92,1.81,1.81,0,0,0-.8-1.07,3.07,3.07,0,0,0-1.59-.35,3.15,3.15,0,0,0-2.2.69,3.53,3.53,0,0,0-1,2,14,14,0,0,0-.14,2.07V76A.23.23,0,0,1,508.48,76.16Z" transform="translate(-20.49 -21.04)"/><path class="cls-1" d="M296,83.82q1.33,3.8,2.43,7c.72,2.12,1.28,3.74,1.66,4.88a.53.53,0,0,0,.06.13.09.09,0,0,0,.16,0,.53.53,0,0,0,.06-.13c.38-1.15.95-2.79,1.69-4.9s1.56-4.43,2.45-7a.31.31,0,0,1,.3-.23h3.08a.21.21,0,0,1,.23.23V99a.23.23,0,0,1-.06.16.19.19,0,0,1-.17.07H306.1a.22.22,0,0,1-.17-.07.23.23,0,0,1-.06-.16L306,85.8a.23.23,0,0,0,0-.13s0,0-.07,0a.13.13,0,0,0-.08,0,.32.32,0,0,0-.05.13c-.29.81-.82,2.28-1.57,4.4s-1.67,4.78-2.76,8c0,.09-.06.15-.1.17a.33.33,0,0,1-.2,0h-2.09a.26.26,0,0,1-.17,0,.46.46,0,0,1-.11-.18q-1.69-5-2.88-8.35c-.79-2.27-1.26-3.6-1.42-4a.43.43,0,0,0-.05-.12.1.1,0,0,0-.08,0,.13.13,0,0,0-.1,0,.31.31,0,0,0,0,.11L294.41,99a.23.23,0,0,1-.06.16.18.18,0,0,1-.17.07h-1.79a.24.24,0,0,1-.23-.23V83.82a.19.19,0,0,1,.07-.17.23.23,0,0,1,.16-.06h3.31A.31.31,0,0,1,296,83.82Z" transform="translate(-20.49 -21.04)"/><path class="cls-1" d="M315.56,87.14a.24.24,0,0,1,.06.18V99a.23.23,0,0,1-.06.16.21.21,0,0,1-.17.07h-1.73a.21.21,0,0,1-.16-.07.2.2,0,0,1-.07-.16V89.06c0-.09,0-.13-.14-.13H312a.24.24,0,0,1-.23-.23V87.32a.25.25,0,0,1,.07-.18.3.3,0,0,1,.16,0h3.41A.29.29,0,0,1,315.56,87.14Zm.08-5.16a1.5,1.5,0,0,1,.44,1.1,1.48,1.48,0,0,1-.44,1.1,1.52,1.52,0,0,1-1.1.42A1.47,1.47,0,0,1,313,83.08a1.52,1.52,0,0,1,.42-1.1,1.48,1.48,0,0,1,1.1-.44A1.5,1.5,0,0,1,315.64,82Z" transform="translate(-20.49 -21.04)"/><path class="cls-1" d="M330.32,101.38a3.8,3.8,0,0,1-1.93,1.83,8.6,8.6,0,0,1-3.55.62,13.21,13.21,0,0,1-2.12-.16,8.25,8.25,0,0,1-1.72-.44.39.39,0,0,1-.14-.1.24.24,0,0,1,0-.2l.27-1.47a.26.26,0,0,1,.11-.17.23.23,0,0,1,.22,0,8.17,8.17,0,0,0,1.62.48,9.23,9.23,0,0,0,1.8.18,6.25,6.25,0,0,0,2.38-.35,2.24,2.24,0,0,0,1.2-1.12,4.94,4.94,0,0,0,.36-2.09v-.83c0-.06,0-.09-.06-.1a.12.12,0,0,0-.11,0,3.9,3.9,0,0,1-1.6,1.2,5.93,5.93,0,0,1-2.12.37,6.3,6.3,0,0,1-3.13-.67,3.67,3.67,0,0,1-1.63-2,10.16,10.16,0,0,1-.49-3.42,7.52,7.52,0,0,1,1.2-4.54,4.71,4.71,0,0,1,4.05-1.62,5.38,5.38,0,0,1,2.1.39,3.82,3.82,0,0,1,1.56,1.2s.06.06.1,0a.12.12,0,0,0,.06-.12v-1a.21.21,0,0,1,.07-.18.28.28,0,0,1,.16,0h1.72a.2.2,0,0,1,.23.23v11A6.82,6.82,0,0,1,330.32,101.38Zm-7-12.26a2.51,2.51,0,0,0-1.07,1.38,7.82,7.82,0,0,0-.32,2.45,7.45,7.45,0,0,0,.33,2.46,2.45,2.45,0,0,0,1.07,1.35,4,4,0,0,0,2,.42,3.39,3.39,0,0,0,2.79-1A4.92,4.92,0,0,0,329,93a5,5,0,0,0-.87-3.21,3.37,3.37,0,0,0-2.79-1.07A3.83,3.83,0,0,0,323.31,89.12Z" transform="translate(-20.49 -21.04)"/><path class="cls-1" d="M335.6,87.14a.31.31,0,0,1,.17,0h1.72a.26.26,0,0,1,.17,0,.24.24,0,0,1,.06.18V89.2c0,.06,0,.1,0,.11s.05,0,.09-.08a4.59,4.59,0,0,1,2.43-2.15,3.86,3.86,0,0,1,1.36-.27.21.21,0,0,1,.23.23V88.6a.25.25,0,0,1-.06.17.22.22,0,0,1-.17.06,3.56,3.56,0,0,0-2.41.89A4.2,4.2,0,0,0,337.93,92q-.09.47-.15,1a10.61,10.61,0,0,0-.06,1.07V99a.23.23,0,0,1-.06.16.19.19,0,0,1-.17.07h-1.72a.22.22,0,0,1-.17-.07.23.23,0,0,1-.06-.16V87.32A.24.24,0,0,1,335.6,87.14Z" transform="translate(-20.49 -21.04)"/><path class="cls-1" d="M353.08,97.36a.41.41,0,0,0,.21.26,1,1,0,0,0,.48.09h.92a.24.24,0,0,1,.18.06.29.29,0,0,1,.05.17v1a.27.27,0,0,1-.2.28,6.72,6.72,0,0,1-1.59.14,2.5,2.5,0,0,1-1.3-.29,1,1,0,0,1-.49-.86.07.07,0,0,0,0-.06s-.05,0-.08,0a3.21,3.21,0,0,1-1.41,1,5.85,5.85,0,0,1-2.08.35,9.92,9.92,0,0,1-2.6-.29,3,3,0,0,1-1.65-1.12,3.92,3.92,0,0,1-.61-2.37,3.86,3.86,0,0,1,.61-2.34,3.07,3.07,0,0,1,1.65-1.13,9.34,9.34,0,0,1,2.57-.3,16.22,16.22,0,0,1,1.75.08,7.49,7.49,0,0,1,1.31.29.08.08,0,0,0,.09,0,.09.09,0,0,0,0-.09v-.85a3.16,3.16,0,0,0-.39-1.74,1.89,1.89,0,0,0-1.18-.78,9.13,9.13,0,0,0-2.13-.2,17.2,17.2,0,0,0-1.87.12h0c-.14,0-.21-.06-.21-.19V87.2a.22.22,0,0,1,.18-.23,14.91,14.91,0,0,1,2.14-.16,11.07,11.07,0,0,1,3.26.4,3.23,3.23,0,0,1,1.8,1.31A4.51,4.51,0,0,1,353,91v5.91A2.09,2.09,0,0,0,353.08,97.36Zm-2.81-.2a2,2,0,0,0,.74-1.79,2.27,2.27,0,0,0-.2-1.08,1.23,1.23,0,0,0-.84-.49,10.65,10.65,0,0,0-2-.14,8.23,8.23,0,0,0-1.73.15,1.43,1.43,0,0,0-.9.59,2.42,2.42,0,0,0-.29,1.31,2.19,2.19,0,0,0,.29,1.23,1.44,1.44,0,0,0,.91.58,7.68,7.68,0,0,0,1.72.15A4.18,4.18,0,0,0,350.27,97.16Z" transform="translate(-20.49 -21.04)"/><path class="cls-1" d="M360.82,97.1a.77.77,0,0,0,.38.41,1.94,1.94,0,0,0,.72.11h1.24a.24.24,0,0,1,.17.06.22.22,0,0,1,.06.17V99a.3.3,0,0,1-.05.16.2.2,0,0,1-.14.09,10,10,0,0,1-1.79.12,4.36,4.36,0,0,1-1.72-.28,1.66,1.66,0,0,1-.9-.92,4.66,4.66,0,0,1-.28-1.82V89.06c0-.09,0-.13-.14-.13h-1.72a.24.24,0,0,1-.16-.07.21.21,0,0,1-.07-.16V87.32a.21.21,0,0,1,.07-.18.28.28,0,0,1,.16,0h1.72a.12.12,0,0,0,.14-.14V84.17a.21.21,0,0,1,.07-.18.3.3,0,0,1,.16,0h1.73a.29.29,0,0,1,.17,0,.24.24,0,0,1,.06.18V87c0,.09,0,.14.13.14h2.72a.26.26,0,0,1,.17,0,.24.24,0,0,1,.06.18V88.7a.25.25,0,0,1-.06.16.22.22,0,0,1-.17.07h-2.72c-.09,0-.13,0-.13.13v7.23A2.16,2.16,0,0,0,360.82,97.1Z" transform="translate(-20.49 -21.04)"/><path class="cls-1" d="M369.61,87.14a.24.24,0,0,1,.06.18V99a.23.23,0,0,1-.06.16.21.21,0,0,1-.17.07h-1.73a.21.21,0,0,1-.16-.07.2.2,0,0,1-.07-.16V89.06c0-.09,0-.13-.14-.13H366a.24.24,0,0,1-.23-.23V87.32a.25.25,0,0,1,.07-.18.3.3,0,0,1,.16,0h3.41A.29.29,0,0,1,369.61,87.14Zm.08-5.16a1.5,1.5,0,0,1,.44,1.1,1.48,1.48,0,0,1-.44,1.1,1.52,1.52,0,0,1-1.1.42,1.47,1.47,0,0,1-1.52-1.52,1.52,1.52,0,0,1,.42-1.1,1.48,1.48,0,0,1,1.1-.44A1.5,1.5,0,0,1,369.69,82Z" transform="translate(-20.49 -21.04)"/><path class="cls-1" d="M383,87.55a4.24,4.24,0,0,1,1.88,2.14,11,11,0,0,1,0,7A4.21,4.21,0,0,1,383,98.78a7.08,7.08,0,0,1-3.44.73,7,7,0,0,1-3.41-.73,4.23,4.23,0,0,1-1.89-2.11,10.62,10.62,0,0,1,0-7,4.25,4.25,0,0,1,1.89-2.14,6.87,6.87,0,0,1,3.41-.74A7,7,0,0,1,383,87.55Zm-1.24,9.61a2.53,2.53,0,0,0,1.11-1.45,8,8,0,0,0,.33-2.53,8.16,8.16,0,0,0-.33-2.56,2.55,2.55,0,0,0-1.11-1.46,4.15,4.15,0,0,0-2.2-.49,4.08,4.08,0,0,0-2.17.49,2.62,2.62,0,0,0-1.13,1.46,8.16,8.16,0,0,0-.33,2.56,8,8,0,0,0,.33,2.53,2.6,2.6,0,0,0,1.13,1.45,4.18,4.18,0,0,0,2.17.48A4.25,4.25,0,0,0,381.8,97.16Z" transform="translate(-20.49 -21.04)"/><path class="cls-1" d="M389.54,87.14a.28.28,0,0,1,.16,0h1.72a.19.19,0,0,1,.23.23v1.47c0,.08,0,.11.05.11s.06,0,.09-.09a3.65,3.65,0,0,1,1.54-1.47,5.11,5.11,0,0,1,2.37-.53,5.27,5.27,0,0,1,2.57.52,2.87,2.87,0,0,1,1.32,1.49,6.87,6.87,0,0,1,.39,2.52V99a.23.23,0,0,1-.06.16.19.19,0,0,1-.17.07H398a.22.22,0,0,1-.17-.07.24.24,0,0,1-.07-.16V92a7.34,7.34,0,0,0-.19-1.88,1.87,1.87,0,0,0-.78-1.08,3.2,3.2,0,0,0-1.72-.38,3.29,3.29,0,0,0-2.16.71,3.43,3.43,0,0,0-1.12,2.12,10.07,10.07,0,0,0-.17,2V99a.28.28,0,0,1,0,.16.21.21,0,0,1-.18.07H389.7a.24.24,0,0,1-.23-.23V87.32A.21.21,0,0,1,389.54,87.14Z" transform="translate(-20.49 -21.04)"/><path class="cls-1" d="M44.23,48.5h9.7a.85.85,0,0,1,1,1L54,59.54a1.19,1.19,0,0,1-.38.72,1,1,0,0,1-.67.24H44.23a.51.51,0,0,0-.58.57V98.23a1,1,0,0,1-.24.67.89.89,0,0,1-.72.29H30.21a1,1,0,0,1-1-1V61.07a.5.5,0,0,0-.57-.57h-7.3a.89.89,0,0,1-.72-.29.7.7,0,0,1-.14-.67l1-10.08a.94.94,0,0,1,1.05-1h6.15c.38,0,.57-.22.57-.67V46.58q0-20.07,20.84-20.07a44.47,44.47,0,0,1,4.51.24,20,20,0,0,1,3.17.53,2.06,2.06,0,0,1,.67.39.77.77,0,0,1,.19.57l-1,9.22c-.06.7-.42,1-1.06.86A23.21,23.21,0,0,0,54.26,38c-.86-.06-1.71-.09-2.54-.09a11.3,11.3,0,0,0-4.71.81,5.1,5.1,0,0,0-2.54,2.88,16.49,16.49,0,0,0-.82,5.81v.48A.51.51,0,0,0,44.23,48.5Z" transform="translate(-20.49 -21.04)"/><path class="cls-1" d="M107,85.89a2.65,2.65,0,0,0,1.16,1.73,5.29,5.29,0,0,0,2.68.53H112a.76.76,0,0,1,.86.86L112,98.23a1.7,1.7,0,0,1-.29.62,2.23,2.23,0,0,1-.48.43,15.76,15.76,0,0,1-3.36.72,30.59,30.59,0,0,1-3.55.24c-3.08,0-5.36-.81-6.87-2.45s-2.25-4-2.25-7.15c0-.64.09-2.21.28-4.7.07-.32,0-.5-.19-.53s-.35.14-.48.53a27.9,27.9,0,0,1-8.06,10.51,19,19,0,0,1-12,3.89q-8.45,0-12.87-5.76T57.48,78.35a41.7,41.7,0,0,1,2.69-15.21,24.62,24.62,0,0,1,8.88-11.38q6.18-4.41,16-4.41a60,60,0,0,1,11.52,1,46.37,46.37,0,0,1,10.37,3.36,1.45,1.45,0,0,1,.72.58,1.75,1.75,0,0,1,.24,1q-.48,8.45-.82,16.61t-.33,12.38A16.88,16.88,0,0,0,107,85.89ZM93.67,60.59a.89.89,0,0,0-.48-.48,17.73,17.73,0,0,0-3.07-.76A25.49,25.49,0,0,0,85.51,59q-7.29,0-10.42,5.23T72,77.68a18.08,18.08,0,0,0,1.49,7.87,5.26,5.26,0,0,0,5.14,3.08q4.41,0,7.87-4.47a33.5,33.5,0,0,0,5.38-10.7,38.37,38.37,0,0,0,1.92-11.14v-1A2.32,2.32,0,0,0,93.67,60.59Z" transform="translate(-20.49 -21.04)"/><path class="cls-1" d="M136.34,27.71a1,1,0,0,1,.24.72l-.77,30.82c0,.38.08.59.24.62s.31-.11.43-.43a26.72,26.72,0,0,1,7-8.73,15.71,15.71,0,0,1,10.08-3.36q9.88,0,14.26,6.14t4.37,16a42.83,42.83,0,0,1-2.6,15.17A23.42,23.42,0,0,1,160.68,96q-6.35,4.36-16.71,4.37a85,85,0,0,1-11.28-.77A37.81,37.81,0,0,1,122.76,97a1.16,1.16,0,0,1-.72-.48,2.57,2.57,0,0,1-.15-1.06v-67a.89.89,0,0,1,.29-.72,1.08,1.08,0,0,1,.67-.24h12.77A1,1,0,0,1,136.34,27.71ZM136,87a1.15,1.15,0,0,0,.52.43,10.87,10.87,0,0,0,3.08.82,26.61,26.61,0,0,0,4.32.34q7.58,0,10.75-5.24t3.17-13.48Q157.8,59,150.89,59q-4.33,0-7.78,4.37a32.41,32.41,0,0,0-5.38,10.46,36.81,36.81,0,0,0-1.92,10.9v1.73A1.16,1.16,0,0,0,136,87Z" transform="translate(-20.49 -21.04)"/><path class="cls-1" d="M249.87,85.89A2.64,2.64,0,0,0,251,87.62a5.36,5.36,0,0,0,2.69.53h1.15a.76.76,0,0,1,.87.86l-.87,9.22a1.69,1.69,0,0,1-.28.62,2.23,2.23,0,0,1-.48.43,15.76,15.76,0,0,1-3.36.72,30.6,30.6,0,0,1-3.56.24c-3.07,0-5.36-.81-6.86-2.45s-2.26-4-2.26-7.15c0-.64.1-2.21.29-4.7.07-.32,0-.5-.19-.53s-.35.14-.48.53a28,28,0,0,1-8.06,10.51,19,19,0,0,1-12,3.89q-8.46,0-12.87-5.76t-4.41-16.23A41.7,41.7,0,0,1,203,63.14a24.66,24.66,0,0,1,8.87-11.38q6.19-4.41,16-4.41a60.17,60.17,0,0,1,11.52,1,46.37,46.37,0,0,1,10.37,3.36,1.45,1.45,0,0,1,.72.58,1.75,1.75,0,0,1,.24,1q-.48,8.45-.82,16.61c-.23,5.44-.33,9.56-.33,12.38A16.88,16.88,0,0,0,249.87,85.89Zm-13.34-25.3a.93.93,0,0,0-.48-.48,17.73,17.73,0,0,0-3.07-.76,25.49,25.49,0,0,0-4.61-.39q-7.31,0-10.42,5.23t-3.12,13.49a18.08,18.08,0,0,0,1.49,7.87,5.25,5.25,0,0,0,5.14,3.08q4.41,0,7.87-4.47a33.28,33.28,0,0,0,5.37-10.7,38.37,38.37,0,0,0,1.92-11.14v-1A2.33,2.33,0,0,0,236.53,60.59Z" transform="translate(-20.49 -21.04)"/><circle class="cls-2" cx="167.96" cy="10.35" r="10.35"/></svg>
