<svg width="287" height="50" viewBox="0 0 287 50" fill="none" xmlns="http://www.w3.org/2000/svg" preserveAspectRatio="xMinYMin meet">
<g clip-path="url(#clip0)">
<path d="M78.3836 35.0456L85.6279 45.2976H82.4929L76.5196 36.8249L73.5118 39.7056V45.2976H70.9276V28.0132H73.5542V36.6554L82.3659 28.0132H85.6702L78.3836 35.0456Z" fill="#3E3D40"/>
<path d="M97.9135 32.8003V45.2976H95.5835V43.4336C94.7362 44.7893 93.2535 45.5942 91.6436 45.5942C88.9747 45.5942 87.2802 44.0267 87.2802 41.1883V32.8003H89.6949V40.8494C89.6949 42.6287 90.6269 43.476 92.3214 43.476C93.8042 43.476 95.4564 42.3745 95.4564 39.8751V32.8427H97.9135V32.8003Z" fill="#3E3D40"/>
<path d="M100.625 28.0554H103.039V45.2975H100.625V28.0554Z" fill="#3E3D40"/>
<path d="M109.182 34.749V42.2474C109.182 42.9676 109.564 43.3065 110.623 43.3065H111.724V45.2552C111.173 45.2976 110.665 45.34 110.241 45.34C107.996 45.34 106.768 44.5774 106.768 42.4592V34.7066H104.734V32.7155H106.768V29.1993H109.182V32.8003H111.724V34.7914L109.182 34.749Z" fill="#3E3D40"/>
<path d="M124.264 32.8003V45.2976H121.934V43.4336C121.086 44.7893 119.604 45.5942 117.994 45.5942C115.283 45.5942 113.588 44.0267 113.588 41.1883V32.8003H116.003V40.8494C116.003 42.6287 116.935 43.476 118.629 43.476C120.112 43.476 121.764 42.3745 121.764 39.8751V32.8427H124.264V32.8003Z" fill="#3E3D40"/>
<path d="M133.923 32.6308V34.9184H133.33C130.915 34.9184 129.432 36.1046 129.432 38.5193V45.2976H127.017V32.8002H129.347V35.0455C130.025 33.5204 131.593 32.5884 133.245 32.6308C133.457 32.5884 133.711 32.5884 133.923 32.6308Z" fill="#3E3D40"/>
<path d="M148.072 39.0278C148.072 43.01 145.827 45.5518 142.353 45.5518C140.743 45.5942 139.218 44.8316 138.286 43.5184V50H135.871V32.7579H138.201V34.6219C139.091 33.2239 140.701 32.3767 142.353 32.4614C145.827 32.5037 148.072 35.0456 148.072 39.0278ZM145.573 38.9431C145.573 36.0623 144.132 34.5796 141.929 34.5796C139.727 34.5796 138.286 36.1894 138.286 39.0278C138.286 41.8662 139.727 43.476 141.929 43.476C144.132 43.476 145.573 41.7814 145.573 38.9431Z" fill="#3E3D40"/>
<path d="M157.138 32.6308V34.9184H156.545C154.13 34.9184 152.648 36.1046 152.648 38.5193V45.2976H150.233V32.8002H152.563V35.0455C153.241 33.5204 154.808 32.5884 156.46 32.6308C156.672 32.5884 156.926 32.5884 157.138 32.6308Z" fill="#3E3D40"/>
<path d="M158.494 39.0277C158.494 35.0455 161.036 32.5037 164.679 32.5037C168.322 32.5037 170.864 35.0455 170.864 39.0277C170.864 43.0099 168.322 45.5517 164.679 45.5517C161.036 45.5517 158.494 43.0099 158.494 39.0277ZM168.365 39.0277C168.365 36.147 166.924 34.5795 164.721 34.5795C162.518 34.5795 161.036 36.1893 161.036 39.0277C161.036 41.9084 162.476 43.4759 164.721 43.4759C166.967 43.4759 168.365 41.9084 168.365 39.0277Z" fill="#3E3D40"/>
<path d="M182.768 43.3064V45.2975H172.432V43.603L177.812 36.74C178.32 36.0622 178.871 35.3844 179.422 34.7489C178.532 34.7489 177.685 34.7489 176.795 34.7489H172.643V32.7578H182.472V34.4524L177.092 41.3153C176.583 41.9508 176.032 42.6286 175.482 43.3064C176.371 43.2641 177.219 43.2641 178.108 43.2641L182.768 43.3064Z" fill="#3E3D40"/>
<path d="M196.198 39.8327H186.793C187.005 42.3746 188.36 43.5607 190.394 43.5607C192.004 43.5607 193.063 42.7558 193.486 41.4849H195.944C195.308 43.8997 193.359 45.5942 190.351 45.5942C186.793 45.5942 184.378 43.0947 184.378 39.0702C184.378 35.1303 186.751 32.5461 190.309 32.5461C194.079 32.5461 196.24 35.4269 196.24 39.1973L196.198 39.8327ZM186.793 37.9264H193.698C193.486 35.9776 192.3 34.5372 190.267 34.5372C188.445 34.5372 187.132 35.6387 186.793 37.9264Z" fill="#3E3D40"/>
<path d="M208.992 36.9095V45.2975H206.577V37.2484C206.577 35.4691 205.645 34.6219 203.95 34.6219C202.468 34.6219 200.815 35.7233 200.815 38.2228V45.2975H198.401V32.8002H200.731V34.6642C201.578 33.3086 203.061 32.5037 204.67 32.5037C207.339 32.5037 208.992 34.0288 208.992 36.9095Z" fill="#3E3D40"/>
<path d="M215.134 34.749V42.2474C215.134 42.9676 215.473 43.3065 216.575 43.3065H217.676V45.2552C217.168 45.2976 216.617 45.34 216.193 45.34C213.948 45.34 212.72 44.5774 212.72 42.4592V34.7066H210.686V32.7155H212.72V29.1993H215.134V32.8003H217.634V34.7914L215.134 34.749Z" fill="#3E3D40"/>
<path d="M86.1786 20.7688V10.8557L81.9422 20.7688H79.5275L75.3335 10.8557V20.7688H70.9276V3.56909H76.8586L80.8831 13.2704L85.1619 3.56909H90.5845V20.7688H86.1786Z" fill="#FF6600"/>
<path d="M93.9736 20.7688V3.56909H97.744C98.1253 3.61146 98.3795 3.908 98.4218 4.24691V20.8112H93.9736V20.7688Z" fill="#FF6600"/>
<path d="M110.665 10.8557H116.257C116.638 10.8557 116.977 11.1946 116.935 11.5759V11.6183V20.5147C114.986 20.896 113.037 21.0654 111.046 21.0654C104.607 21.0654 101.218 18.0152 101.218 12.0843C101.218 6.7888 104.607 3.14551 110.241 3.14551C112.741 3.14551 114.901 3.82333 116.299 4.75533L114.563 7.72081C113.292 7.17008 111.936 6.83116 110.538 6.7888C107.276 6.7888 105.793 8.94936 105.793 12.0843C105.793 15.431 107.53 17.4645 110.792 17.4645C111.428 17.4645 112.063 17.4221 112.699 17.3374V14.3719H110.58L110.665 10.8557Z" fill="#FF6600"/>
<path d="M126.806 6.87347H124.645V11.1946H126.806C128.119 11.1946 129.136 10.5168 129.136 8.86458C129.136 7.21238 128.077 6.87347 126.806 6.87347ZM130.068 20.7688L128.034 16.0241C127.611 15.0497 127.314 14.5837 126.424 14.5837H124.645V20.7688H120.324V4.24691C120.366 3.908 120.621 3.61146 121.002 3.56909H127.102C130.407 3.56909 133.287 4.24691 133.287 8.56803C133.287 10.4744 132.228 12.4655 130.237 12.8468C131.211 13.1857 132.228 14.4566 132.779 15.8546L134.728 20.8112H130.068V20.7688Z" fill="#FF6600"/>
<path d="M144.26 6.87352C141.93 6.87352 140.277 8.52571 140.277 12.1266C140.277 15.7276 141.93 17.4645 144.26 17.4645C146.251 17.4645 147.903 15.8123 147.903 12.1266C147.903 8.44099 146.251 6.87352 144.26 6.87352ZM144.26 21.1078C138.625 21.1078 135.617 17.1256 135.617 12.1266C135.617 7.12771 138.583 3.18787 144.26 3.18787C149.555 3.18787 152.52 7.17007 152.52 12.1266C152.52 17.0832 149.555 21.1078 144.26 21.1078Z" fill="#FF6600"/>
<path d="M161.036 21.1078C158.112 21.1078 155.401 20.0487 154.215 19.2438L156.164 15.7699C157.265 16.4478 159.383 17.4645 161.374 17.4645C162.476 17.4645 163.916 17.2527 163.916 16.0241C163.916 14.8803 162.349 14.499 160.273 13.9059C157.774 13.1857 154.893 12.2114 154.893 8.86462C154.893 5.26369 158.112 3.23022 162.264 3.23022C165.018 3.23022 167.136 4.20459 168.237 5.26369L165.865 7.97498C164.679 7.25479 163.493 6.70406 162.095 6.70406C160.442 6.70406 159.553 7.33952 159.553 8.22916C159.553 9.1188 160.739 9.5848 162.222 10.0084C164.848 10.8134 168.449 11.6606 168.449 15.0921C168.449 18.6507 165.611 21.1078 161.036 21.1078Z" fill="#FF6600"/>
<path d="M56.5367 3.779C51.4981 -1.25967 43.3261 -1.25967 38.2874 3.779L32.2325 9.83388L41.336 18.9797C44.9351 22.4517 46.7134 27.4057 46.2053 32.3597L56.5367 22.0283C61.5754 16.9896 61.5754 8.81768 56.5367 3.779Z" fill="#F39955"/>
<path d="M38.7533 21.6478L22.0283 4.88044C16.9896 -0.158228 8.81767 -0.158228 3.779 4.88044C-1.25967 9.91911 -1.25967 18.0911 3.779 23.1297L29.6498 49.0006L38.7533 39.8548C43.792 34.8161 43.792 26.6441 38.7533 21.6478Z" fill="#FF6600"/>
</g>
<defs>
<clipPath id="clip0">
<rect width="217.676" height="50" fill="white"/>
</clipPath>
</defs>
</svg>
