<?xml version="1.0" encoding="utf-8"?>
<!-- Generator: Adobe Illustrator 26.1.0, SVG Export Plug-In . SVG Version: 6.00 Build 0)  -->
<svg version="1.1" id="Ebene_1" xmlns="http://www.w3.org/2000/svg" xmlns:xlink="http://www.w3.org/1999/xlink" x="0px" y="0px"
	 viewBox="0 0 150 58.21" style="enable-background:new 0 0 150 58.21;" xml:space="preserve">
<style type="text/css">
	.st0{fill:#006FB9;}
</style>
<g>
	<g>
		<path d="M61.54,8.32h-5.11c0-2.54-1.47-4.01-4.25-4.01c-2.23,0-3.74,1.1-3.74,2.67c0,1.89,1.47,2.5,5.31,3.46
			c4.59,1.13,8.57,2.33,8.57,7.65c0,4.63-3.84,7.71-9.53,7.71c-6.07,0-9.87-3.02-9.87-8.57h5.21c0,2.95,1.61,4.49,4.73,4.49
			c2.57,0,4.22-1.2,4.22-3.12c0-2.16-1.58-2.57-5.04-3.46c-4.59-1.17-8.78-2.26-8.78-7.61c0-4.29,3.67-7.23,9.02-7.23
			C58.39,0.3,61.54,3.08,61.54,8.32z"/>
		<path d="M74.78,21.49v3.67c-0.65,0.21-1.71,0.34-2.54,0.34c-4.01,0-5.76-1.61-5.76-5.66v-8.43h-2.81V7.84h2.81V3.32h4.8v4.53h3.33
			v3.57h-3.33v7.58c0,1.92,0.62,2.67,2.26,2.67C73.99,21.66,74.47,21.59,74.78,21.49z"/>
		<path d="M92.95,14.18v6.31c0,2.19,0.17,3.6,0.48,4.77h-4.32c-0.17-0.72-0.24-1.47-0.24-2.33H88.8c-1.3,1.85-3.26,2.74-5.66,2.74
			c-3.7,0-5.93-2.26-5.93-5.28c0-2.85,1.71-4.77,6.75-5.55c1.3-0.21,3.26-0.41,4.35-0.48v-0.62c0-2.19-1.17-3.09-2.85-3.09
			c-1.78,0-2.81,0.99-2.88,2.64h-4.66c0.17-3.33,2.57-6,7.54-6C90.41,7.29,92.95,9.62,92.95,14.18z M88.32,17.27
			c-1.03,0.07-2.47,0.21-3.5,0.38c-1.99,0.34-2.81,0.99-2.81,2.4c0,1.3,0.89,2.19,2.57,2.19c0.99,0,2.06-0.31,2.74-0.99
			c0.82-0.82,0.99-1.75,0.99-3.33V17.27z"/>
		<path d="M108.07,25.26v-2.3H108c-1.06,1.78-2.98,2.74-5.01,2.74c-4.39,0-7.23-3.6-7.23-9.15c0-5.55,2.81-9.15,7.17-9.15
			c1.99,0,3.87,0.89,4.94,2.54h0.07V0.85h4.8v24.41H108.07z M100.76,16.55c0,3.33,1.47,5.49,3.77,5.49c2.16,0,3.63-2.02,3.63-5.49
			c0-3.46-1.47-5.49-3.63-5.49C102.24,11.06,100.76,13.22,100.76,16.55z"/>
		<path d="M126.44,21.49v3.67c-0.65,0.21-1.71,0.34-2.54,0.34c-4.01,0-5.76-1.61-5.76-5.66v-8.43h-2.81V7.84h2.81V3.32h4.8v4.53
			h3.33v3.57h-3.33v7.58c0,1.92,0.62,2.67,2.26,2.67C125.65,21.66,126.13,21.59,126.44,21.49z"/>
		<path d="M61.34,53.2v4.32H44.78V33.12h5.04V53.2H61.34z"/>
		<path d="M63.57,50.81v-10.7h4.8v10.22c0,2.64,1.17,3.84,3.05,3.84c1.99,0,3.43-1.58,3.43-4.73v-9.33h4.8v17.42h-4.49v-2.19h-0.07
			c-1.13,1.54-2.88,2.61-5.11,2.61C66.07,57.94,63.57,55.54,63.57,50.81z"/>
		<path d="M88.9,53.68v0.07h8.88v3.77H83.11v-3.91l8.54-9.67v-0.07h-8.19v-3.77h13.99v3.91L88.9,53.68z"/>
		<path d="M111.77,52.24h4.9c-0.69,3.19-3.7,5.83-8.33,5.83c-5.49,0-8.67-3.84-8.67-9.39c0-5.14,3.19-9.12,8.64-9.12
			c4.01,0,6.96,2.26,8.06,5.79c0.38,1.2,0.55,2.54,0.55,4.46H104.4c0.14,3.6,1.89,4.87,3.94,4.87
			C110.26,54.68,111.53,53.65,111.77,52.24z M104.5,46.79h7.61c-0.31-2.64-1.89-3.84-3.81-3.84
			C106.35,42.95,104.88,44.15,104.5,46.79z"/>
		<path d="M130.42,40.04v4.15c-0.55-0.1-1.03-0.17-1.51-0.17c-2.95,0-4.53,1.85-4.53,5.28v8.23h-4.8V40.11h4.42v2.47h0.07
			c1.17-1.89,2.71-2.74,4.77-2.74C129.32,39.83,129.94,39.9,130.42,40.04z"/>
		<path d="M149.28,46.83v10.7h-4.8V47.31c0-2.64-1.17-3.84-3.05-3.84c-1.99,0-3.43,1.58-3.43,4.73v9.32h-4.8V40.11h4.49v2.19h0.07
			c1.13-1.54,2.88-2.61,5.11-2.61C146.77,39.7,149.28,42.1,149.28,46.83z"/>
	</g>
	<path class="st0" d="M21.67,3.21h2.36V0.85h-2.36V3.21z M19.31,0.85h-2.36v2.36h-2.36V0.85h-2.36v2.36H9.87V0.85H0.42v56.68h21.25
		V3.21h-2.36V0.85z M26.4,3.21h2.36V0.85H26.4V3.21z M31.12,0.85v2.36h2.36V0.85H31.12z"/>
</g>
</svg>
